<svg version="1.2" xmlns="http://www.w3.org/2000/svg" viewBox="0 0 946 828" width="946" height="828">
	<style>
		.s0 { fill-opacity: .97;fill: #fefefe } 
		.s1 { fill: #222020 } 
		.s2 { fill: #fefefe } 
	</style>
	<g id="Background">
		<path id="Path 0" class="s0" d="m0 414v414h946v-828h-946z"/>
		<path id="Path 1" fill-rule="evenodd" class="s1" d="m404.97 71.25c-0.67 1.84-1.39 11.09-1.65 21.25-0.26 9.9-0.1 21.49 0.36 25.75 0.54 5.1 0.48 7.63-0.18 7.37-0.59-0.22-1.27 3.33-1.67 8.75-0.36 5.02-1.16 10.48-1.78 12.13-0.98 2.64-1.28 2.82-2.55 1.5-0.86-0.9-1.87-5.51-2.51-11.5-0.79-7.31-1.52-10.27-2.71-11-0.89-0.55-3.01-2.25-4.7-3.78-1.7-1.53-3.87-2.77-4.83-2.75-0.96 0.01-2.55 1.04-3.53 2.28-0.98 1.24-2.11 4.61-2.5 7.5-0.4 2.89-1.17 5.25-1.72 5.25-0.6 0-1.01 4.26-1.01 10.75-0.01 5.91-0.24 11.76-0.5 13-0.27 1.24-1.05 2.26-1.74 2.28-0.69 0.01-1.81-1.11-2.5-2.5-0.69-1.39-1.69-5.34-2.22-8.78-0.53-3.44-1.44-10.3-2.02-15.25-0.58-4.95-1.61-9.58-2.28-10.29-0.68-0.72-1.91-1.29-2.73-1.28-0.83 0.01-2.06 1.15-2.75 2.54-0.69 1.39-1.74 6.69-2.33 11.78-0.6 5.09-0.93 13.19-0.75 18 0.18 4.82 0.22 8.75 0.08 8.75-0.14 0-0.65-1.01-1.15-2.25-0.49-1.24-1.4-6.53-2.02-11.75-0.61-5.22-1.56-10.06-2.1-10.75-0.54-0.69-1.43-1.03-1.98-0.75-0.55 0.28-0.93 1.51-0.85 2.75 0.08 1.24-0.37 3.49-1 5-0.63 1.51-1.14 3.09-1.12 3.5 0.02 0.41-0.88 1.65-2 2.75-1.12 1.1-2.15 1.78-2.29 1.5-0.13-0.28-1.59-3.13-3.24-6.34-1.65-3.21-4.58-7.62-6.5-9.79-2.59-2.92-4.15-3.87-6-3.66-2.07 0.24-2.55 0.89-2.78 3.79-0.15 1.93 0.41 4.51 1.25 5.75 1.16 1.7 1.35 3.44 0.78 7.14-0.41 2.69-1.2 4.71-1.75 4.49-0.64-0.26-0.89 3.29-0.69 9.86 0.18 5.69-0.15 11.48-0.75 13.01-0.58 1.51-1.62 2.77-2.31 2.79-0.69 0.02-1.81-1.22-2.49-2.75-0.68-1.53-1.91-6.17-2.74-10.29-0.83-4.13-1.74-8.51-2.02-9.75-0.31-1.42-1.24-2.25-2.5-2.25-1.66 0-1.9 0.47-1.4 2.75 0.32 1.51 1.47 6.12 2.54 10.25 1.07 4.12 2.95 9.3 4.18 11.5 1.42 2.55 3.04 4.09 4.46 4.25 1.5 0.17 2.78-0.64 3.94-2.5 1.08-1.72 1.88-5.55 2.16-10.25l0.43-7.5c4.3 8.53 6.59 11.6 7.87 12.33 1.28 0.74 3.21 1.19 4.29 1 1.08-0.18 2.54-1.46 3.23-2.83 0.7-1.38 1.28-5.99 1.29-10.25 0.01-6.22 0.31-7.75 1.51-7.75 0.82 0 2.29-1.31 3.25-2.9l1.75-2.91c1.93 8.77 3.39 12.77 4.5 14.56 1.1 1.79 2.67 3.25 3.5 3.25 1.25 0 1.51-1.99 1.53-11.75 0.02-6.46 0.48-15.13 1.02-19.25 0.54-4.13 1.32-7.83 1.72-8.22 0.4-0.4 1.28 3.43 1.96 8.5 0.68 5.07 1.94 11.92 2.8 15.22 0.87 3.3 2.22 7.01 3.02 8.25 0.8 1.24 2.15 2.59 3 3 1 0.48 2.26 0.03 3.5-1.25 1.34-1.38 2.21-4.32 2.81-9.5 0.49-4.13 0.94-6.71 1.01-5.75 0.07 0.96 0.97 3.44 1.99 5.5 1.02 2.06 2.48 4.05 3.25 4.41 0.76 0.37 1.89 0.37 2.49 0 0.61-0.36 1.58-1.56 2.17-2.66 0.58-1.1 1.61-5.15 2.29-9l1.22-7c2.18 8.53 3.47 12.01 4.27 13.25 0.8 1.24 2.12 2.25 2.95 2.25 0.82 0 2.16-1.01 2.97-2.25 0.8-1.24 2.07-6.07 2.81-10.75 1.31-8.21 1.38-8.36 2.14-4.5 0.42 2.2 1.46 5.35 2.29 7 0.84 1.65 2.48 4.02 3.66 5.28 1.17 1.25 2.58 2.27 3.13 2.27 0.55 0 1.97-1.02 3.15-2.27 1.18-1.26 2.82-4.31 3.65-6.78 0.82-2.47 1.82-6.97 2.21-10 0.4-3.03 0.44-6.51 0.1-7.75-0.33-1.24-0.95-2.26-1.36-2.26-0.41-0.01-1.11 3.03-1.55 6.75-0.44 3.72-1.23 8.56-1.75 10.76-0.53 2.2-1.9 4.9-3.04 6l-2.09 2c-2.25-3.1-3.57-6.25-4.38-9-0.82-2.75-1.99-9.5-2.59-15-0.66-5.95-0.86-16.89-0.5-27 0.33-9.35 1.03-19.03 1.54-21.5 0.66-3.19 0.6-4.88-0.23-5.79-0.64-0.72-1.46-1.28-1.83-1.25-0.37 0.02-1.21 1.5-1.86 3.29zm69.14 0.52c-1.86 0.95-5.27 3.76-7.56 6.23-2.29 2.47-5.8 7.42-7.79 11-2 3.57-4.86 10.1-6.37 14.5-2.27 6.63-2.75 9.8-2.81 18.5-0.07 9.19 0.23 11.18 2.42 15.91 1.37 2.97 3.74 6.46 5.25 7.75 1.74 1.48 4.03 2.34 6.25 2.34 2.66 0 4.52-0.92 7.75-3.87 2.34-2.12 5.33-5.84 6.65-8.25 1.68-3.09 2.2-5.19 1.75-7.13-0.36-1.51-0.99-2.77-1.4-2.78-0.41-0.02-1.51 1.89-2.44 4.25-0.93 2.35-3.52 5.97-5.75 8.03-3.08 2.85-4.9 3.75-7.56 3.75-2.67 0-4.1-0.71-6-3-1.38-1.65-2.95-4.69-3.49-6.75-0.55-2.06-1-6.22-1.01-9.25-0.01-3.03 0.68-8.2 1.53-11.5 0.84-3.3 3.04-9.15 4.88-13 1.83-3.85 4.75-8.91 6.46-11.25 1.72-2.34 5.38-6.05 8.13-8.25 2.83-2.27 6.08-4 7.5-4 1.37 0 2.72 0.67 3 1.5 0.27 0.82-0.51 2.94-1.75 4.7-1.24 1.75-4.1 4.57-6.37 6.25-3.25 2.41-3.94 3.42-3.25 4.8 0.48 0.96 1.54 1.75 2.37 1.75 0.82 0 2.74-0.83 4.25-1.84 1.51-1.01 3.76-3.83 4.99-6.25 1.23-2.43 2.25-6.21 2.28-8.41 0.03-2.57-0.59-4.61-1.74-5.72-0.98-0.95-2.91-1.73-4.28-1.73-1.38 0-4.03 0.77-5.89 1.72zm53.53 9.48c-1.88 3.99-4.43 10.4-5.67 14.25-1.23 3.85-2.39 7.22-2.58 7.5-0.19 0.28-1.04-0.18-1.88-1-1.38-1.34-1.77-1.28-3.56 0.5-1.11 1.1-2 3.24-1.98 4.75 0.02 1.57 1.11 3.83 2.53 5.25 1.37 1.37 2.14 2.61 1.7 2.75-0.44 0.14-2.02 3.62-3.51 7.75-1.49 4.12-3.63 9.07-4.76 11-1.64 2.79-2.29 3.24-3.24 2.22-0.92-0.99-0.79-3.81 0.6-12.5 1.72-10.78 1.72-11.26 0-12.32-0.98-0.6-2.13-2.29-2.54-3.75-0.41-1.46-1.65-3.1-2.75-3.65-1.1-0.55-2.9-0.78-4-0.5-1.1 0.28-3.1 2.41-4.45 4.75-1.34 2.34-3.15 6.95-4 10.25-0.86 3.3-1.57 8.25-1.57 11-0.01 2.75 0.44 6.46 1 8.25 0.71 2.24 1.64 3.25 3.02 3.25 1.1 0 3.09-1.46 4.43-3.25 1.34-1.79 3.33-5.28 4.43-7.75l2-4.5c0.05 10.39 0.58 12.67 2 14.5l1.95 2.5c3.41-3.1 5.25-5.69 6.3-7.75 1.04-2.06 2-3.75 2.14-3.74 0.14 0-0.11 3.49-0.54 7.75-0.47 4.6-0.37 10.88 0.25 15.49 0.57 4.26 1.49 8.65 2.04 9.75 0.55 1.1 1.9 2 3 2 1.1 0 2.92-1.01 4.04-2.25 1.12-1.24 2.58-4.05 3.24-6.25 0.72-2.36 1.18-9.73 1.13-18-0.04-7.7-0.6-15.69-1.24-17.75-1.01-3.22-0.96-3.68 0.33-3.25 0.83 0.28 3.75 0.5 6.5 0.5 4.31 0 4.92 0.24 4.45 1.75-0.31 0.96-1.05 4.67-1.64 8.25-0.79 4.75-0.77 7.64 0.06 10.75 0.71 2.69 2.05 4.8 3.63 5.75 2.08 1.25 3.03 1.29 5.67 0.25 1.75-0.69 4.7-3.05 6.56-5.25 1.86-2.2 4.95-7.15 6.85-11 1.91-3.85 3.46-7.56 3.45-8.25-0.02-0.69-0.37-1.25-0.78-1.25-0.41 0-2.1 2.58-3.75 5.73-1.65 3.16-4.69 7.88-6.75 10.5-2.23 2.84-4.86 5.02-6.5 5.4-2.05 0.47-3.07 0.15-4.02-1.25-0.69-1.03-1.27-3.68-1.27-5.88 0-2.2 0.88-6.93 1.97-10.5 1.08-3.58 3.02-8.08 4.31-10 1.29-1.93 3-3.64 3.8-3.82 0.8-0.17 1.8 0.39 2.21 1.25 0.42 0.88-0.11 4.34-1.19 7.82-1.07 3.44-3.09 7.49-4.5 9-1.41 1.51-3.01 2.53-3.56 2.25-0.55-0.28-0.89 0.48-0.75 1.67 0.14 1.2 0.7 2.35 1.25 2.56 0.55 0.21 2.5-0.88 4.33-2.42 1.98-1.68 4.1-4.92 5.25-8.06 1.05-2.89 1.92-7.72 1.92-10.75 0-3.56-0.53-6.03-1.5-7-0.83-0.83-1.73-1.5-2-1.5-0.28 0-1.51 0.46-2.75 1.01-1.24 0.56-3.49 2.92-5 5.25l-2.76 4.24c-11.23-1.63-15.05-2.42-15.74-2.8-0.69-0.39-1.25-1.6-1.25-2.7 0-1.1 1.62-6.61 3.61-12.25 1.98-5.64 4.68-12.39 6-15 1.31-2.61 2.39-5.65 2.39-6.75 0-1.1-0.66-2-1.47-2-0.84 0-2.93 3.09-4.89 7.25zm25.51-2.8c-1.73 1.95-3.82 4.9-4.65 6.55-0.83 1.65-1.26 3.34-0.98 3.75 0.29 0.41 1.12-0.15 1.85-1.25 0.72-1.1 3.42-3.35 6-5 3.35-2.15 4.6-3.56 4.41-4.99-0.16-1.09-1-2.13-1.88-2.3-0.88-0.16-3.02 1.29-4.75 3.24zm43.68 38.1c-1.47 0.81-4.02 3.38-5.66 5.71-1.64 2.33-3.92 6.38-5.08 8.99-1.15 2.61-2.37 6.89-2.72 9.5-0.34 2.63-0.12 6.42 0.5 8.5q1.13 3.75 3.38 4.36c1.24 0.33 3.6 0.3 5.25-0.08 1.71-0.38 5.16-2.91 8.02-5.85 2.76-2.85 6.24-7.32 7.75-9.93 1.5-2.61 2.6-5.54 2.44-6.5-0.22-1.28-0.98-0.68-2.87 2.25-1.41 2.2-4.34 6.25-6.5 9-2.17 2.75-5.6 5.79-7.64 6.75-3.01 1.42-4 1.52-5.33 0.5-1.27-0.98-1.52-2.45-1.15-6.75 0.27-3.03 1.59-7.98 2.95-11 1.36-3.03 3.9-7.19 5.65-9.25 1.75-2.06 3.85-3.75 4.68-3.75 1.2 0 1.39 0.96 0.97 4.75-0.49 4.43-0.42 4.62 1.02 2.75 0.85-1.1 1.54-3.58 1.54-5.5 0-1.93-0.57-4.07-1.26-4.77-0.7-0.69-1.72-1.24-2.27-1.21-0.55 0.03-2.2 0.72-3.67 1.53zm25.87 1.2c-0.88 0.96-2.14 3.32-2.81 5.25-0.66 1.92-2.79 5.07-4.72 7-1.94 1.93-4.8 6.2-6.35 9.5-2.01 4.28-2.82 7.58-2.84 11.5-0.01 3.13 0.53 6.05 1.25 6.77 0.7 0.69 2.28 1.26 3.52 1.25 1.24-0.01 3.68-1.26 5.43-2.77 1.75-1.51 4.34-4.32 5.75-6.25 2.24-3.05 3.12-3.5 6.81-3.5 2.34 0 4.25 0 4.25 0 0 0-1.13 2.25-2.51 5-1.38 2.75-2.51 6.46-2.5 8.25 0.01 1.79 0.47 3.25 1.02 3.25 0.55 0 4.11-3.71 7.91-8.25 3.81-4.54 8.3-9.6 9.99-11.25 1.69-1.65 3.42-2.64 3.84-2.2 0.42 0.44 0.1 1.79-0.7 3-0.8 1.21-3.62 5.8-6.27 10.2-2.65 4.4-4.81 9.12-4.81 10.5 0 1.37 0.58 3.07 1.27 3.77 1.03 1.02 4.01-1.48 15.52-13 7.84-7.85 14.26-13.93 14.25-13.52 0 0.41-2.44 4.24-5.41 8.5-2.98 4.26-6.58 10.11-8 13-1.43 2.89-2.61 6.04-2.63 7-0.03 0.96 0.65 2.31 1.5 3 0.84 0.69 2.78 1.04 4.29 0.78 1.62-0.27 5.96-3.46 10.56-7.75 4.3-4 8.04-8.18 8.32-9.28 0.27-1.1 0.25-2.11-0.06-2.25-0.32-0.14-3.95 3.12-8.07 7.25-4.36 4.36-8.65 7.74-10.25 8.08-1.51 0.32-2.98 0.3-3.25-0.04-0.28-0.35 0.3-2.07 1.27-3.83 0.97-1.77 5.14-7.71 9.27-13.21 5.8-7.73 7.5-10.74 7.48-13.25-0.01-1.98-0.6-3.44-1.52-3.75-0.83-0.28-3.19 0.71-5.25 2.19-2.06 1.47-8.6 7.66-14.52 13.75-5.92 6.08-10.76 10.72-10.75 10.31 0.01-0.41 2.12-4.01 4.68-8 2.57-3.99 5.72-9.5 7.02-12.25 1.29-2.75 2.12-5.79 1.83-6.75-0.28-0.96-1.3-1.75-2.26-1.74-0.96 0-5.91 4.28-11 9.5-5.09 5.22-9.24 9.15-9.23 8.74 0.01-0.41 2.02-3.9 4.47-7.75 2.44-3.85 4.45-7.56 4.47-8.25 0.02-0.69-0.41-1.48-0.96-1.75-0.55-0.28-1.79 0.89-2.75 2.59-0.96 1.7-2.01 2.94-2.33 2.75-0.32-0.19-2.12 0.52-4 1.56-1.88 1.05-4.09 1.65-4.92 1.34-1.29-0.48-1.33-1.29-0.25-5.9 0.69-2.94 1.26-7.82 1.26-10.84 0-3.25-0.61-6.42-1.5-7.75-0.83-1.24-1.89-2.25-2.36-2.25-0.47 0-1.57 0.79-2.45 1.75zm-319.7 23.75c0 1.93 0.45 4.62 1 6 0.55 1.37 1.67 2.5 2.5 2.5 1.08 0 1.5-1.11 1.5-4 0-2.2-0.45-4.9-1-6-0.55-1.1-1.68-2-2.5-2-1.05 0-1.5 1.06-1.5 3.5zm418 3.38c-3.03 0.98-6.96 2.53-8.75 3.45-1.79 0.92-5.13 3.36-7.42 5.42-2.29 2.06-5.45 5.77-7.01 8.25-1.57 2.47-2.85 5.62-2.85 7 0 1.37 0.57 3.07 1.26 3.77 0.7 0.69 2.62 1.27 4.27 1.28 1.65 0.01 3.78-0.79 4.72-1.77 0.95-0.98 1.74-2.34 1.75-3.03 0.02-0.93-0.6-1-2.47-0.25q-2.5 1-4.5 0c-1.1-0.55-2-1.23-2-1.5 0-0.28 0.67-1.85 1.5-3.5 0.83-1.65 3.41-4.52 5.75-6.38 2.34-1.86 6.5-4.5 9.25-5.86 2.75-1.37 7.47-3.06 10.5-3.76 3.02-0.7 8.42-1.07 12-0.81 4.65 0.33 8.04 1.3 11.89 3.39 2.97 1.61 5.83 3.82 6.37 4.92 0.53 1.1 0.69 3.24 0.35 4.75-0.33 1.51-2.64 4.77-5.11 7.25-2.48 2.47-6.75 5.62-9.5 7-2.75 1.37-7.81 3.23-11.25 4.12-4.12 1.06-8.04 1.4-11.5 1-5.23-0.62-5.25-0.61-5 2.06 0.19 2.05 0.97 2.88 3.25 3.5 1.68 0.45 5.42 0.36 8.5-0.22 3.02-0.56 8.76-2.58 12.75-4.49 4.41-2.11 9.34-5.53 12.58-8.72 3-2.96 6.1-7.21 7.1-9.75q1.79-4.5 1.07-7.5c-0.39-1.65-2.13-4.27-3.86-5.82-1.73-1.55-5.39-3.47-8.14-4.26-2.75-0.79-8.38-1.41-12.5-1.38-4.28 0.04-9.86 0.83-13 1.84zm7.79 8.87c-2.81 2.61-9.21 9.51-14.2 15.33-5 5.82-11.2 13.69-13.79 17.5-2.58 3.8-5.43 8.72-6.33 10.92-0.89 2.2-1.48 5.12-1.3 6.5 0.19 1.4 0.99 2.5 1.81 2.5 0.91 0 1.73-1.36 2.12-3.5 0.34-1.93 1.08-4.63 1.63-6 0.55-1.38 2.58-4.98 4.5-8 1.93-3.03 6.08-8.65 9.22-12.5 3.15-3.85 9.73-11.16 14.63-16.25 4.91-5.09 8.92-9.7 8.92-10.25 0-0.55-0.47-1-1.04-1-0.58 0-3.35 2.14-6.17 4.75zm-442.63 4c-0.49 0.96-1.13 4.9-1.42 8.75-0.3 4.04 0.07 10.27 0.87 14.75 0.76 4.26 1.16 8.99 0.88 10.5-0.29 1.51-0.74 2.86-1 3-0.27 0.14-1.38-1.21-2.47-3-1.1-1.79-3.23-6.74-4.75-11-1.79-5.02-3.3-7.76-4.27-7.75-0.83 0-3.41-1.01-5.75-2.25-3.34-1.77-4.62-2.01-6-1.13-0.96 0.62-2.09 2.42-2.51 4-0.42 1.59-0.5 4.68-0.17 6.88 0.36 2.43 0.17 4.2-0.48 4.5q-1.07 0.5 1.4 10c1.36 5.22 2.48 10.96 2.49 12.75 0.01 2.23-0.45 3.25-1.48 3.25-0.83 0-2.58-1.91-3.9-4.25-1.32-2.34-4.3-9.43-6.63-15.75-2.32-6.32-4.96-12.07-5.85-12.77-0.89-0.69-2.41-1.26-3.37-1.25-1.1 0.01-1.96 1.04-2.3 2.77-0.31 1.51-0.04 6.57 0.59 11.25 0.63 4.68 2.01 11.87 3.07 16 1.06 4.12 2.19 8.4 2.52 9.5 0.43 1.43 0.28 1.71-0.52 1-0.62-0.55-2.81-5.45-4.87-10.88-2.06-5.44-4.5-10.39-5.44-11-0.93-0.62-2.06-0.78-2.5-0.36-0.44 0.42-0.22 2 0.5 3.5 0.82 1.76 0.93 2.92 0.29 3.24-0.61 0.3 0.18 4.22 2.01 10 1.66 5.22 2.88 10.62 2.71 12-0.17 1.37-0.76 2.49-1.31 2.48-0.55-0.01-3.39-4.51-6.32-10-2.92-5.49-6.75-11.44-8.5-13.22-1.75-1.79-4.08-3.36-5.17-3.5-1.41-0.19-2.58-1.85-4-5.71-1.11-2.99-3.25-6.71-4.76-8.25-1.51-1.54-3.65-2.8-4.75-2.8-1.1 0-2.5 1.01-3.1 2.25-0.86 1.76-0.71 3.23 0.72 6.75 1 2.47 2.95 5.8 4.35 7.38 1.39 1.59 3.77 3.5 5.28 4.25 1.94 0.97 2.97 2.45 3.5 5.03 0.41 2.02 1.4 3.93 2.18 4.25 1.18 0.49 1.32-0.25 0.75-4.16-0.37-2.61-0.34-4.76 0.07-4.78 0.41-0.02 1.65 0.93 2.75 2.11 1.1 1.18 4.3 6.26 7.12 11.28 2.82 5.03 6.32 10.04 7.79 11.14 2.09 1.57 3.03 1.76 4.38 0.88 1.23-0.8 1.71-2.48 1.7-6-0.01-2.68-0.41-6.01-0.89-7.38-0.6-1.7 0.22-1.05 2.55 2 2.06 2.69 4.43 4.65 5.89 4.88 2.2 0.33 2.37 0.12 1.67-2-0.44-1.31-2.15-8.45-3.81-15.88-1.68-7.5-2.88-15.5-2.71-18l0.31-4.5c4.49 11.62 7.02 17.47 8.52 20.5 1.5 3.03 3.91 6.96 5.35 8.75 1.45 1.79 3.42 3.27 4.38 3.29 0.96 0.03 2.42-0.7 3.25-1.62 1.17-1.3 1.34-2.91 0.76-7.29-0.41-3.1-1.03-6.76-1.37-8.13-0.42-1.69 0.38-0.97 2.49 2.25 1.72 2.61 4.02 5.2 5.12 5.75 1.53 0.76 2.38 0.59 3.62-0.75 1.29-1.39 1.55-3.4 1.25-9.85l-0.37-8.1c4.84 8.05 7.24 10.62 8.77 11.2 1.46 0.55 3.01 0.63 3.44 0.17 0.43-0.46 0.79-3.66 0.79-7.12v-6.28c7.12 7.73 8.71 8.69 11.25 8.71 2.41 0.01 3.78-0.69 5.27-2.73 1.11-1.51 2.3-4.78 2.65-7.25 0.35-2.47 0.11-8.32-0.52-13-0.74-5.39-1.76-9.05-2.8-10-1.47-1.35-1.57-1.32-0.99 0.25 0.35 0.96 0.92 6.14 1.27 11.5 0.5 7.82 0.3 10.49-1 13.5-1.11 2.54-2.27 3.75-3.63 3.75-1.1 0-2.94-1.01-4.09-2.25-1.14-1.24-2.94-3.94-4-6-1.05-2.06-2.61-6.79-3.46-10.5-0.86-3.71-1.31-7.99-1-9.5 0.38-1.9 1.09-2.67 2.3-2.48 0.96 0.14 2.31 1.49 3 3 0.69 1.5 1.7 2.73 2.25 2.73 0.56 0 0.72-0.99 0.36-2.25-0.36-1.24-1.26-3.26-2-4.5-0.92-1.52-2.32-2.25-4.33-2.25-1.82 0-3.32 0.68-3.87 1.75zm459.34 30.67c-2.75 1.34-7.16 4.6-9.81 7.26-2.65 2.65-5.92 6.62-7.28 8.82-1.52 2.45-2.36 5.16-2.19 6.99 0.16 1.68 0.94 3.13 1.78 3.31 0.83 0.18 3.98-0.84 7-2.25 3.02-1.42 6.57-3.36 7.88-4.31 1.95-1.43 1.72-0.79-1.25 3.51-2.2 3.18-3.63 6.43-3.63 8.25 0 2.61 0.36 3 2.75 2.98 1.51-0.01 5.56-1.59 9-3.5l6.25-3.48c-4.65 5.81-6.29 9.07-6.65 11-0.54 2.92-0.29 3.71 1.5 4.75 1.27 0.74 3.49 0.99 5.4 0.63 1.79-0.34 4.49-1.24 6-2l2.75-1.38c-4.27 7.37-4.35 7.95-3 9.5 1.07 1.23 2.5 1.6 5 1.27 1.92-0.25 6.2-1.7 9.5-3.21 5.99-2.75 6-2.75 4.25-0.41-0.96 1.29-2.65 4.04-3.75 6.1-1.1 2.06-2.01 4.76-2.02 6-0.01 1.24 0.56 2.82 1.25 3.52 0.7 0.69 2.28 1.26 3.52 1.25 1.24-0.01 4.73-0.92 7.75-2.02 3.61-1.31 5.26-1.57 4.79-0.75-0.39 0.69-1.75 2.82-3.03 4.75-1.28 1.93-2.31 4.74-2.29 6.25q0.03 2.75 2.28 3.86c1.3 0.64 3.72 0.82 5.75 0.42 1.92-0.39 5.61-1.9 8.18-3.36 4.43-2.53 4.76-2.58 6.25-0.92 0.86 0.96 3.03 1.77 4.82 1.79 1.89 0.03 4.29-0.83 5.75-2.06l2.5-2.1c-5.42 0.67-8.01 0.47-9.25-0.01-2.2-0.85-2.12-1.05 3.32-8.62 3.06-4.26 5.79-8.65 6.07-9.75 0.28-1.1 0.36-3.13 0.18-4.5-0.22-1.73-1.01-2.58-2.57-2.75-1.43-0.16-3.43 0.93-5.5 3-1.79 1.78-5.05 3.79-7.25 4.45-2.8 0.85-4.15 0.89-4.5 0.14-0.3-0.65-2.86 0.27-6.5 2.35-3.3 1.88-7.91 4.18-10.25 5.12-2.34 0.93-5.15 1.46-6.25 1.19-1.1-0.28-2.01-1.06-2.01-1.75-0.01-0.69 1.26-3.28 2.83-5.75 1.57-2.48 5.96-7.43 9.77-11.01 3.8-3.57 10.74-9.42 15.41-12.99 4.67-3.57 13.45-9.47 19.5-13.12 6.6-3.97 11.16-7.37 11.39-8.5 0.34-1.64-0.01-1.78-2.75-1.13-1.73 0.41-5.5 2.19-8.39 3.94-2.89 1.76-9.3 6.17-14.25 9.81-4.95 3.64-12.26 9.41-16.25 12.81-3.99 3.4-7.25 5.96-7.25 5.69 0-0.28-3.83 1.52-8.5 4-4.67 2.47-9.63 4.5-11 4.5-1.71 0-2.5-0.55-2.51-1.75-0.01-0.96 1.9-3.59 4.25-5.84 2.34-2.24 6.42-5.84 9.06-8 2.63-2.15 4.77-4.47 4.75-5.16-0.03-0.69-0.39-1.46-0.8-1.71-0.41-0.25-3.69 1.66-7.29 4.25-3.6 2.59-9.33 6.17-12.75 7.96-3.42 1.79-7.19 3.14-8.38 3-1.2-0.14-2.37-0.93-2.61-1.75-0.27-0.91 2.92-4.72 8.17-9.75 5.46-5.23 8.43-8.8 8.11-9.75-0.44-1.33-0.78-1.33-3 0-1.91 1.15-2.57 1.21-2.8 0.25-0.18-0.76-2.45 0.47-5.75 3.12-3 2.4-7.14 5.21-9.2 6.25-2.06 1.03-4.42 1.88-5.25 1.88-1.23 0-1.29-0.4-0.34-2.25 0.64-1.24 3.96-5.18 7.38-8.75 6.21-6.49 6.22-6.51 6.34-12.75 0.08-4.35-0.34-6.71-1.38-7.75-0.83-0.82-2.06-1.51-2.75-1.51-0.69-0.01-3.5 1.08-6.25 2.43zm-580.95 23.58c-0.3 0.55 1.07 4.26 3.05 8.25 3.43 6.9 3.51 7.31 1.75 8.47-1.2 0.8-1.59 1.77-1.1 2.75 0.41 0.84 1.76 1.42 3 1.28 1.77-0.2 3.16 1.12 6.58 6.25 2.38 3.57 6.43 8.94 9 11.93 2.57 2.99 6.02 6.25 7.67 7.25 1.65 1 4.46 1.81 6.25 1.82 2.72 0 3.35-0.45 3.9-2.75 0.35-1.51 0.24-5.08-0.25-7.92-0.89-5.12-0.88-5.15 1.1-3.37 1.1 0.98 3.01 2.3 4.25 2.92 1.24 0.61 3.49 1.13 5 1.15 1.51 0.02 3.53-0.77 4.47-1.75 1.24-1.27 1.74-3.49 1.77-7.78 0.02-3.74-0.85-8.63-2.32-13-1.3-3.85-2.88-8.01-3.51-9.25-0.64-1.24-1.5-2.05-1.91-1.81-0.41 0.25 0.28 3.73 1.53 7.75 1.25 4.02 2.51 9.56 2.79 12.31 0.34 3.21 0.04 5.89-0.83 7.5-0.87 1.62-2.04 2.38-3.3 2.17-1.06-0.18-3.65-1.98-5.75-4-2.09-2.02-5.14-6.37-6.79-9.67-1.64-3.3-3.3-7.96-3.69-10.37-0.69-4.24-0.64-4.35 1.79-4 1.93 0.29 3.26 1.86 5.81 6.87 2.58 5.08 3.24 7.49 3 11-0.27 3.94-0.06 4.5 1.69 4.5 1.66 0 2.05-0.76 2.29-4.5 0.23-3.37-0.44-6.01-2.64-10.5-1.62-3.3-4.34-7.24-6.05-8.75-1.7-1.51-4.22-2.75-5.6-2.75-1.71 0-2.89 0.83-3.75 2.62-1.02 2.14-0.97 3.7 0.25 8.48 0.83 3.22 1.16 5.87 0.75 5.88-0.41 0.01 0.09 1.71 1.12 3.77 1.03 2.06 2.87 6.68 4.08 10.25 1.21 3.57 2.06 7.62 1.88 8.99-0.19 1.44-1.07 2.6-2.08 2.75-0.96 0.14-3.63-1.43-5.93-3.49-2.3-2.06-6.8-7.8-10.01-12.75-3.2-4.95-5.83-9.45-5.83-10-0.01-0.55 1.13-2.57 2.52-4.5 1.39-1.93 2.53-4.18 2.53-5 0-0.82-0.57-2.06-1.26-2.74-1.02-0.99-1.72-0.44-3.52 2.75-1.24 2.2-2.59 3.98-3 3.97-0.41-0.01-2.44-3.16-4.5-7-2.06-3.84-4.18-6.98-4.7-6.98-0.52 0-1.2 0.45-1.5 1zm283.45 24.05c-3.57 0.51-9.76 1.83-13.75 2.94-3.99 1.1-10.51 3.65-14.5 5.64-3.99 2-9.72 5.58-12.75 7.96-3.02 2.37-7.12 6.25-9.1 8.61-1.98 2.37-4.99 6.55-6.69 9.3-1.7 2.75-4.19 7.93-5.53 11.5-1.35 3.57-2.92 9.65-3.5 13.5-0.59 3.85-1.29 16.45-1.57 28-0.31 12.94-1.1 23.97-2.06 28.75-0.85 4.26-1.5 8.09-1.43 8.5 0.06 0.41 0.06 1.54 0 2.5-0.08 1.1-1.51 2.18-3.87 2.91-2.06 0.63-5.32 2.18-7.25 3.44-1.92 1.26-4.62 4.23-6 6.6-2.22 3.82-2.5 5.42-2.48 14.3 0.02 7.37 0.59 11.84 2.19 17 1.18 3.85 3.65 9.24 5.47 11.97 1.83 2.73 5.12 6.25 7.32 7.83 2.56 1.83 5.88 3.1 9.24 3.53 4.78 0.61 5.3 0.93 5.94 3.67 0.38 1.65 1.85 4.29 3.26 5.86 1.41 1.58 4.81 4.12 7.56 5.65 2.75 1.53 6.46 4.4 8.25 6.38 1.92 2.13 3.56 5.27 4 7.65 0.52 2.83 1.2 3.95 2.25 3.74 0.83-0.17 1.66-1.2 1.85-2.3 0.19-1.09-0.26-3.73-1-5.86-0.74-2.13-3.26-5.62-5.6-7.75-2.34-2.13-5.94-4.72-8-5.76-2.06-1.05-4.51-2.73-5.43-3.75-0.92-1.02-2.16-3.1-2.75-4.61-1.03-2.65-0.92-2.8 3.1-4 2.29-0.69 6.18-3.05 8.63-5.25 2.46-2.2 5.29-5.57 6.29-7.5l1.82-3.5c0.15 5.43 0.41 9.02 0.68 11.5 0.27 2.48 0.93 7.43 1.48 11 0.55 3.57 1.88 7.96 2.96 9.75 1.08 1.79 3.28 4.04 4.88 5l2.92 1.75c-3.67 6.2-5.43 10.81-6.28 14.25-1.37 5.54-1.38 6.31-0.05 6.75 0.83 0.27 1.95 0.27 2.5 0 0.55-0.27 1-1.4 1-2.5 0-1.1 0.98-4.59 2.17-7.75 1.19-3.16 3.41-6.99 4.92-8.5 2.49-2.48 3.45-2.75 9.83-2.75 3.9 0 8.21-0.45 9.58-1 1.38-0.55 4.41-2.79 6.75-4.98 2.79-2.61 6.39-4.67 10.5-6 3.44-1.11 7.94-2.03 10-2.03 2.06-0.01 5.78 0.58 8.25 1.3 2.48 0.73 7.2 2.97 10.5 4.99 3.3 2.02 7.58 3.97 9.5 4.32 1.97 0.37 4.48 0.16 5.75-0.47 1.24-0.62 2.25-1.81 2.25-2.63 0-1.16-0.85-1.38-3.75-0.97-3.12 0.44-4.92-0.16-10.75-3.56-3.85-2.25-8.91-4.74-11.25-5.53-2.34-0.79-6.61-1.43-9.5-1.43-2.89 0.01-7.5 0.63-10.25 1.39-2.75 0.76-5.9 1.73-7 2.16-1.17 0.45 0.19-1.58 3.25-4.89 4.39-4.74 5.16-6.12 4.7-8.42-0.31-1.51-1.32-3.3-2.25-3.97-0.94-0.67-2.04-1.01-2.45-0.75-0.41 0.26-0.52 1.82-0.25 3.47 0.42 2.55-0.29 3.87-4.75 8.77-2.89 3.17-6.04 7.44-7 9.5-0.96 2.05-2.76 4.14-4 4.65-1.24 0.5-6.75 1.02-12.25 1.15-5.5 0.14-10.65-0.16-11.45-0.66-0.8-0.5-2.24-2.71-3.19-4.91-0.96-2.2-2.03-7.15-2.37-11-0.35-3.85-0.82-8.35-1.04-10-0.23-1.65-0.7-8.63-1.05-15.5-0.63-12.24-0.6-12.55 1.73-14.79q2.37-2.29 5.25-2c2.56 0.26 3.15 1.04 5.5 7.25 1.69 4.51 4.21 8.7 7.12 11.87 2.48 2.7 6.08 5.58 8 6.39 2.7 1.14 6.02 1.35 14.5 0.91 6.05-0.31 13.7-1.28 17-2.15 3.3-0.87 7.8-2.63 10-3.91 2.2-1.28 6.05-4.29 8.57-6.7 3.05-2.92 5.32-6.35 6.86-10.37 1.48-3.83 2.53-9.33 2.94-15.21l0.63-9.21c12.46 0.33 15.94 0 16.15-0.58 0.21-0.6-2.58-1.08-6.9-1.2-3.99-0.11-7.7-0.63-8.25-1.16-0.65-0.61 0.59-1.18 3.5-1.61 2.48-0.36 5.96-1.3 7.75-2.09 1.79-0.79 3.25-2.12 3.25-2.94 0-0.82-0.34-1.36-0.75-1.2-0.41 0.17-2.44 1.07-4.5 2-2.06 0.94-5.66 1.98-8 2.33-4.05 0.6-4.29 0.49-5.02-2.25-0.43-1.58-0.66-2.94-0.5-3.02 0.15-0.07 9.27-4.64 20.27-10.15l20-10.02c6.2 9.42 9.13 13.51 10.5 15.17 2.27 2.75 2.5 3.9 2.55 12.58 0.04 8.08 0.42 10.33 2.5 14.52 1.35 2.72 3.69 6.21 5.2 7.75 1.51 1.53 4.55 3.24 6.75 3.79 2.2 0.55 5.24 0.71 6.75 0.36 1.51-0.35 3.99-1.25 5.5-2 1.51-0.75 2.75-2.04 2.75-2.86 0-0.82-0.56-1.68-1.25-1.89-0.69-0.22-2.15 0.24-3.25 1.01-1.1 0.78-3.91 1.41-6.25 1.4-3.18-0.02-5.05-0.71-7.42-2.77-1.75-1.51-4.06-4.77-5.14-7.25-1.08-2.48-2.08-7.2-2.24-10.5-0.15-3.3-0.07-6.45 0.17-7 0.28-0.65 2.07-0.68 5.16-0.07 3.2 0.62 6.97 0.53 11.72-0.3 3.85-0.67 7.67-1.61 8.5-2.08 0.94-0.55 1.22-1.47 0.75-2.46-0.49-1.03-1.54-1.41-3-1.07-1.24 0.29-4.5 0.98-7.25 1.53-2.75 0.55-7.02 0.67-9.5 0.28-2.47-0.4-5.62-1.69-7-2.87-1.37-1.17-4.75-5.57-7.5-9.75l-5-7.62c7.75-4.14 16.75-9.07 25-13.62 8.25-4.55 17.7-9.04 21-9.98 3.3-0.93 7.35-1.44 9-1.12 1.65 0.32 3.99 1.6 5.2 2.85 1.21 1.26 2.9 4.19 3.75 6.53l1.55 4.25c-5.04-2.93-7.85-4.09-9.5-4.46-1.65-0.37-5.02-0.11-7.5 0.58-3.48 0.97-6.25 3.02-12.25 9.07-4.48 4.51-7.75 8.65-7.75 9.81 0 1.11 0.67 2 1.5 2 0.83 0 3.86-2.55 6.75-5.67 2.89-3.12 7.05-6.96 9.25-8.53 2.2-1.57 5.24-2.84 6.75-2.83 1.93 0.02 3.7 1.15 5.93 3.78 1.74 2.06 4.27 6.23 5.61 9.25 1.33 3.02 3.47 9.55 4.75 14.5 1.27 4.95 2.62 13.05 3 18 0.43 5.57 0.23 12.05-0.51 17-0.66 4.4-2 9.8-2.97 12-0.97 2.2-2.62 4.71-3.66 5.58-1.05 0.87-4.04 2.33-6.65 3.25-3.31 1.16-4.93 2.35-5.35 3.92-0.32 1.24 0.13 3.71 1 5.5 0.88 1.79 2.73 3.7 4.1 4.25 2.06 0.83 2.4 1.48 1.92 3.75-0.32 1.51-1.67 4.21-3 6-1.33 1.79-4.28 4.49-6.54 6-2.27 1.51-4.75 3.99-5.5 5.5-0.98 1.96-1.38 6.94-1.38 17.25 0 7.98 0.23 14.95 0.5 15.5 0.28 0.55-0.4 1.45-1.5 2-1.1 0.55-5.83 5.5-10.5 11-5.43 6.39-8.72 11.17-9.11 13.25-0.34 1.79 0.11 6.62 1.01 10.75 0.9 4.12 1.63 8.62 1.64 10 0 1.45-1.17 3.6-2.77 5.1-1.52 1.44-8.79 7.29-16.15 13-7.35 5.72-13.65 10.85-14 11.4-0.34 0.55-0.84 5.65-1.12 11.34-0.46 9.53-0.69 10.49-3 12.32-1.37 1.09-4.75 2.62-7.5 3.39-2.75 0.78-8.37 1.88-12.5 2.45-4.12 0.57-9.75 1.68-12.5 2.48-2.75 0.79-7.02 2.8-9.5 4.47-2.47 1.66-6.86 5.06-9.75 7.54-2.92 2.51-7.13 5.03-9.5 5.68-3.56 0.98-5.14 0.88-9.75-0.59-3.02-0.97-10.22-4.52-16-7.9-5.77-3.37-12.07-6.69-14-7.36-1.92-0.68-5.97-1.26-9-1.29-3.78-0.05-6.97 0.64-10.18 2.2l-4.68 2.27c-4.66-10.08-6.79-15.02-7.74-17.5-0.95-2.48-4.4-10.8-7.67-18.5-3.28-7.7-7.03-18.27-8.36-23.5-1.34-5.31-2.39-12.37-2.38-16 0.01-3.57 0.47-8.19 1.02-10.25 0.54-2.06 2.04-4.99 3.33-6.5 1.29-1.51 3.99-3.54 6-4.5 2.01-0.96 4.04-2.76 4.51-4q0.84-2.25-0.99-8.25c-1.02-3.3-1.85-7.69-1.85-9.75-0.01-3.11 0.78-4.56 4.61-8.5 4.14-4.27 4.42-4.84 2.75-5.61-1.32-0.6-2.61-0.28-4.37 1.1-1.37 1.07-3.53 3.48-4.78 5.35-1.54 2.3-2.27 4.87-2.26 7.91 0.01 2.48 0.69 6.75 1.52 9.5 0.82 2.75 1.52 5.45 1.55 6 0.03 0.55-1.21 1.56-2.74 2.24-1.53 0.68-4 2.48-5.49 4-1.48 1.52-3.68 5.01-4.88 7.76-1.72 3.95-2.16 6.79-2.08 13.5 0.06 4.98 0.96 11.81 2.16 16.5 1.13 4.4 4.1 12.95 6.6 19 2.5 6.05 6.14 15.05 8.09 20 3.32 8.44 3.47 9.28 2.35 13.5-0.66 2.48-2.92 7.42-5.02 11-2.1 3.58-6.4 10.1-9.55 14.5-3.16 4.4-7.57 10.7-9.8 14-2.24 3.3-4.9 8.25-5.92 11-1.06 2.84-1.62 6.19-1.31 7.75 0.39 1.9 1.18 2.75 2.56 2.75 1.62 0 2-0.67 2-3.5 0-1.92 0.86-5.19 1.91-7.25 1.05-2.06 5.47-8.02 9.82-13.25 4.35-5.23 9.88-12.42 12.28-16 2.4-3.58 5.38-8.75 6.62-11.5 1.24-2.75 2.28-4.44 2.31-3.75 0.03 0.69 1.19 2.6 2.56 4.25 1.72 2.07 3.12 2.84 4.5 2.5 1.1-0.27 2-0.95 2-1.5 0-0.55 1.46-1.9 3.25-3 1.79-1.1 5.04-2 7.25-2.02 2.2-0.01 5.8 0.6 8 1.37 2.2 0.76 7.38 3.44 11.5 5.95 4.13 2.51 9.98 5.72 13 7.14 3.03 1.41 7.98 2.87 11 3.22 4.44 0.53 6.37 0.25 10-1.45 2.48-1.15 7.65-4.84 11.5-8.18 4.08-3.55 8.88-6.71 11.5-7.58 2.48-0.82 9.9-2.4 16.5-3.51 6.83-1.15 14.26-3.08 17.25-4.48 4.47-2.09 5.4-3.02 6.24-6.21 0.55-2.06 1-7.46 1-12l0.01-8.25c24.69-18.99 32.34-25.51 32.93-26.75 0.59-1.24 1.07-3.83 1.07-5.75 0-1.92-0.73-6.76-1.63-10.75-1.4-6.24-1.43-7.62-0.25-9.92 0.76-1.46 4.53-6.35 8.38-10.85 3.85-4.5 8.35-8.88 10-9.72 1.65-0.85 5.25-2.2 8-3.01 2.75-0.81 6.8-2.39 9-3.51 2.2-1.13 6.4-4.11 9.34-6.64 2.94-2.53 6.42-6.4 7.73-8.6 1.31-2.2 2.38-5.13 2.38-6.5 0-1.38-1.2-4.08-2.66-6-1.47-1.93-3.03-4.96-3.48-6.75-0.46-1.86-0.38-4.97 0.19-7.25 0.59-2.37 2.65-5.74 5.05-8.25 3.72-3.9 4.36-4.2 7.75-3.62 2.04 0.34 6.4 2.21 9.7 4.14 3.3 1.94 8.03 4.05 10.5 4.69 2.48 0.64 5.85 0.86 7.5 0.48 1.65-0.38 4.8-1.57 7-2.65 2.65-1.31 4.84-1.74 6.5-1.28 1.38 0.39 7.29 5.72 13.14 11.85 6.09 6.38 12.71 12.28 15.5 13.82 2.67 1.47 8.01 3.45 11.86 4.41 3.85 0.96 8.91 2.57 11.25 3.57 2.34 1.01 6.64 4.2 9.55 7.09 2.92 2.89 7.27 8.18 9.67 11.75 2.4 3.57 5.37 9.2 6.59 12.5 1.23 3.3 3.14 10.27 4.25 15.5 1.11 5.23 2.51 13.55 3.12 18.5 0.6 4.95 1.53 15.08 2.08 22.5 0.54 7.42 0.98 20.02 0.97 28-0.01 7.98-0.66 20.8-1.45 28.5-0.79 7.7-2.02 15.56-2.73 17.47-0.94 2.49-2.98 4.53-7.3 7.28-3.3 2.1-12.52 6.55-20.5 9.9-7.97 3.34-17.42 7.7-21 9.7-3.58 1.99-10.33 6.38-15 9.74-4.67 3.37-10.75 7.26-13.5 8.66-2.75 1.4-7.7 3.32-11 4.27-3.4 0.98-9.47 1.74-14 1.75-4.4 0.02-12.38-0.83-17.73-1.87-6.54-1.28-10.09-1.57-10.85-0.9-0.62 0.55-0.91 1.45-0.65 2 0.27 0.55 4.93 1.87 10.36 2.93 5.53 1.09 13.83 1.92 18.87 1.89 5.22-0.03 11.73-0.78 15.5-1.78 3.58-0.96 8.3-2.65 10.5-3.76 2.2-1.11 8.28-5.07 13.5-8.8 5.23-3.72 12.42-8.38 16-10.33 3.58-1.96 11.23-5.55 17-7.97 5.78-2.43 14.08-6.16 18.46-8.3 4.38-2.13 9.6-5.46 11.61-7.38 3.03-2.91 3.85-4.6 4.81-10 0.64-3.58 1.57-10.1 2.07-14.5 0.5-4.4 0.72-20.6 0.5-36-0.22-15.4-0.67-30.02-0.98-32.5-0.31-2.48-1.22-9.45-2.01-15.5-0.8-6.05-2.39-14.82-3.54-19.5-1.15-4.68-3.82-12.1-5.94-16.5-2.11-4.4-6.34-11.04-9.41-14.75-3.06-3.71-7.48-8.12-9.82-9.79-2.34-1.67-6.05-3.66-8.25-4.42-2.2-0.76-8.05-2.57-13-4.03l-9-2.66c-17.83-18.28-24.46-24.32-26.25-25.22-1.79-0.9-4.49-1.62-6-1.6-1.51 0.02-4.33 1.01-6.25 2.2-2.09 1.29-5.11 2.15-7.5 2.14-2.85-0.01-6.44-1.35-12.5-4.67-6.49-3.55-9.57-4.66-13-4.68-3.65-0.03-5.23 0.58-8.35 3.22-2.12 1.79-5.01 5.74-6.42 8.76-2.04 4.39-2.43 6.41-1.95 10 0.34 2.48 1.99 6.64 3.67 9.25l3.05 4.75c-3.68 6.59-6.95 10.29-9.63 12.49-2.68 2.19-6.89 4.96-9.37 6.14-2.47 1.19-6.19 2.43-8.25 2.77l-3.75 0.6c-0.1-21.46 0.33-27.45 1.06-29 0.64-1.38 3.48-4.3 6.31-6.5 3.69-2.88 6.04-5.83 8.36-10.5 1.77-3.57 3.23-7.74 3.25-9.25 0.02-2.63-0.16-2.73-3.98-2.25-3.29 0.41-4.18 0.15-5-1.5-0.89-1.77-0.41-2.27 4.25-4.37 2.89-1.3 6.45-3.67 7.91-5.25 1.46-1.58 3.6-4.68 4.74-6.88 1.14-2.2 2.8-7.38 3.69-11.5 1.17-5.42 1.47-10.42 1.1-18-0.29-5.8-1.5-14.31-2.7-19-1.21-4.68-2.99-10.52-3.97-13-0.97-2.48-2.3-7.65-2.94-11.5-0.64-3.85-2.16-8.76-3.37-10.91-1.22-2.14-3.48-4.84-5.04-6-2.21-1.63-4.29-2.09-9.53-2.09-6.09 0-7.67 0.48-17.17 5.23-5.76 2.88-15.42 7.98-21.47 11.34-6.05 3.35-21.91 11.68-35.25 18.51-13.34 6.83-24.38 12.31-24.54 12.17-0.16-0.14-1.51-1.94-3-4-1.49-2.06-4.04-4.54-5.66-5.5-1.9-1.13-3.32-3.08-4-5.5-0.58-2.06-1.5-3.98-2.05-4.25-0.55-0.27-1.79 0.88-2.75 2.56l-1.75 3.07c-4.34-5.59-4.4-5.6-5.91-3.63-1.36 1.79-1.53 1.81-1.56 0.25-0.02-0.96-0.48-1.75-1.03-1.75-0.55 0-1.01 1.01-1.03 2.25-0.03 2.22-0.05 2.23-1.54 0.25-1.3-1.72-1.64-1.79-2.45-0.5-0.52 0.82-0.96 2.06-0.96 2.75-0.01 0.69-0.36 1.26-0.77 1.28-0.41 0.02-1.65-0.89-2.75-2.03-1.1-1.14-2.34-2.05-2.75-2.03-0.41 0.02-0.74 0.82-0.73 1.78 0.01 1.59-0.1 1.57-1.25-0.15-0.7-1.05-1.83-1.61-2.52-1.25-0.71 0.37-0.97 1.41-0.6 2.4 0.53 1.45 0.4 1.53-0.75 0.48-0.77-0.69-1.74-1.26-2.15-1.25-0.41 0.01-0.75 0.92-0.75 2.02 0 1.1-0.45 2.23-1 2.5-0.55 0.27-1.45-0.18-2-1-0.57-0.86-1.86-1.29-3-1-1.17 0.29-2 1.33-2 2.5 0 1.15-0.53 1.83-1.25 1.6-0.69-0.23-2.13-0.79-3.21-1.25-1.72-0.75-1.87-0.56-1.23 1.65l0.72 2.5c-3.13-3.1-4.28-3.77-4.56-3.5-0.29 0.27 0.05 1.74 0.75 3.25 1.17 2.51 1.04 3-1.41 5.5-1.48 1.51-3.61 4.77-4.73 7.25-1.62 3.57-2.04 6.61-2.06 14.75l-0.02 10.25c-4.26-0.01-6.51 0.66-7.75 1.49-1.24 0.83-2.42 1.17-2.62 0.76-0.2-0.41-0.94-2.55-1.64-4.75-0.69-2.2-2.55-6.59-4.13-9.75-1.57-3.16-2.41-5.75-1.86-5.75 0.55 0 1-2.25 1-5 0-2.75-0.45-5-1-5-0.55 0-1.28 1.01-1.63 2.25l-0.62 2.25c-0.58-3.49-1.2-4.5-1.75-4.5-0.55 0-1.52 1.01-2.15 2.25-1.12 2.19-1.17 2.2-1.88 0.25q-0.72-2-3.47-2-2.75 0-3.47 2c-0.71 1.95-0.76 1.94-1.88-0.25-0.63-1.24-1.6-2.25-2.15-2.25-0.55 0-1.01 1.01-1.03 2.25-0.03 2.19-0.06 2.19-1.16 0.25-0.63-1.1-1.47-2.23-1.88-2.5-0.41-0.27-0.35-2.52 0.13-5 0.49-2.48 1.13-12.15 1.43-21.5 0.3-9.35 0.74-20.83 0.99-25.5 0.25-4.68 1.41-11.65 2.6-15.5 1.18-3.85 3.28-9.25 4.67-12 1.39-2.75 4.49-7.48 6.88-10.5 2.4-3.02 6.28-7.07 8.62-8.99 2.34-1.92 6.73-4.97 9.75-6.77 3.03-1.8 8.88-4.36 13-5.69 4.13-1.33 10.2-2.97 13.5-3.65 3.3-0.67 11.85-1.26 19-1.31 7.15-0.05 20.43 0.26 29.5 0.68 9.08 0.43 22.8 1.22 30.5 1.75 7.7 0.54 17.83 1.47 22.5 2.06 4.67 0.59 10.75 2.03 13.5 3.2 2.75 1.17 7.7 3.69 11 5.58 3.3 1.9 9.4 6.87 13.55 11.05 4.4 4.43 8.68 9.88 10.27 13.09 1.51 3.02 3.28 8.72 3.96 12.66 0.67 3.94 1.45 7.42 1.72 7.73 0.28 0.31 1.63 0.8 3 1.09 1.38 0.29 3.17 0.72 4 0.96 0.83 0.25 2.83 2.16 4.45 4.25 1.62 2.1 4.2 6.51 5.73 9.81 1.53 3.3 5.21 12.98 8.18 21.5 2.96 8.52 6.74 18.2 8.39 21.5 1.64 3.3 4.62 7.46 6.62 9.25 2.08 1.87 5.23 3.52 7.38 3.88 2.06 0.35 6.67 0.16 10.25-0.43 4.83-0.79 7.4-0.76 10 0.12 2.31 0.78 4.54 2.71 6.55 5.68 1.68 2.48 3.76 6.75 4.63 9.5 0.87 2.75 2.06 6.8 2.64 9 0.71 2.68 1.9 4.41 3.62 5.25 1.41 0.69 5.82 1.25 9.81 1.26 3.99 0 8.94 0.45 11 1 2.33 0.61 4.67 2.22 6.18 4.24 1.33 1.79 5.64 9.32 9.57 16.75 3.94 7.42 8.84 15.98 10.9 19 2.71 3.98 5.65 6.66 10.67 9.71 3.81 2.32 7.73 5.25 8.71 6.5 0.98 1.26 2.48 3.86 3.35 5.79 0.86 1.92 1.54 5.75 1.51 8.5-0.04 2.75-0.2 6.11-0.35 7.47-0.2 1.71 0.24 2.55 1.46 2.75 1.31 0.21 2.03-0.8 2.84-3.97 0.61-2.34 0.83-6.5 0.49-9.25-0.36-2.98-1.91-7.2-3.84-10.43-2.18-3.66-4.85-6.43-8.17-8.5-2.72-1.69-7.22-5.32-10.01-8.07-3.79-3.73-7.1-8.9-13.07-20.36-4.39-8.45-9.38-17-11.08-19-1.77-2.08-4.77-4.17-7-4.87-2.15-0.68-7.51-1.22-11.91-1.21-5.31 0.02-8.39-0.41-9.17-1.27-0.64-0.71-1.73-3.54-2.41-6.29-0.69-2.75-2.11-7.02-3.17-9.5-1.06-2.48-3.24-6.19-4.84-8.25-1.73-2.22-4.64-4.4-7.16-5.35-3.68-1.39-5.32-1.44-12.25-0.39-6.99 1.07-8.41 1.02-11.25-0.39-1.79-0.89-4.32-3.08-5.63-4.87-1.31-1.79-3.07-4.6-3.9-6.25-0.84-1.65-4.08-10.43-7.19-19.5-3.12-9.08-7.22-19.76-9.1-23.75-1.89-3.99-5.12-8.97-7.18-11.08-2.06-2.1-5.1-4.13-6.75-4.52-2.77-0.64-3.1-1.19-4.25-7.17-0.69-3.56-2.66-9.29-4.37-12.73-2.12-4.25-5.74-8.82-11.29-14.25-4.49-4.4-10.62-9.46-13.63-11.24-3-1.79-8.16-4.36-11.46-5.71-3.3-1.35-9.15-2.91-13-3.46-3.85-0.55-17.58-1.69-30.5-2.54-12.92-0.84-32.5-1.73-43.5-1.98-11-0.25-22.92-0.04-26.5 0.48zm-325.23 5.7c-0.84 0.96-2.21 3.1-3.05 4.75-0.83 1.65-1.83 5.02-2.21 7.5-0.38 2.5-0.21 6.39 0.4 8.75 0.79 3.08 1.99 4.81 4.34 6.27 2.26 1.41 4.6 1.94 7.67 1.75 2.43-0.15 4.56-0.72 4.74-1.27 0.17-0.55-0.1-1.68-0.59-2.5-0.75-1.26-1.38-1.3-3.98-0.25-2.47 1-3.6 1-5.66 0-1.41-0.69-2.82-2.38-3.13-3.75-0.32-1.38-0.39-4.75-0.16-7.5 0.22-2.75 1.19-6.24 2.13-7.75l1.73-2.75c8.93 14.34 14.05 21.87 17.15 26 3.09 4.12 8.74 10.87 12.57 15 3.82 4.12 9.16 8.95 11.86 10.73 2.71 1.77 6.16 3.23 7.67 3.25 1.55 0.01 2.75-0.53 2.75-1.23-0.01-0.69-1.92-2.02-4.25-2.96-2.66-1.07-7.33-4.81-12.47-10-4.53-4.56-10.32-10.99-12.87-14.29-2.55-3.3-8.52-11.75-13.27-18.78-4.75-7.03-8.91-12.77-9.24-12.75-0.33 0.02-1.29 0.82-2.13 1.78zm36.56 0c-0.33 0.96 0.14 4.67 1.06 8.25 0.91 3.57 4.13 11.67 7.14 18 3.02 6.32 5.25 11.61 4.98 11.75-0.28 0.14-1.67-1.44-3.08-3.5-1.42-2.06-4.35-6.56-6.5-10-2.69-4.27-4.56-6.25-5.93-6.25-1.1 0-2 0.23-2 0.5 0 0.27 1.87 3.31 4.16 6.75 2.29 3.44 5.56 8 7.25 10.14 1.7 2.14 4.44 4.54 6.09 5.33 1.65 0.79 3.56 1.18 4.25 0.86 0.89-0.41-0.3-3.8-4.16-11.83-2.97-6.19-6.38-14.63-7.58-18.75-1.2-4.13-2.03-7.59-1.84-7.7 0.18-0.11 3.48 4.56 7.33 10.36 3.85 5.81 8.69 12.08 10.75 13.95 2.65 2.4 4.56 3.32 6.5 3.14 2.35-0.21 2.8-0.75 3.08-3.75 0.24-2.51-0.9-6.19-4.03-13-2.4-5.23-4.91-9.84-5.58-10.25-0.67-0.41-1.45-0.64-1.72-0.5-0.28 0.14 1.52 4.64 4 10 2.47 5.36 4.5 10.87 4.5 12.25 0 1.37-0.56 2.48-1.25 2.45-0.69-0.02-2.6-1.56-4.25-3.42-1.65-1.86-6.15-8.38-10-14.5-3.85-6.11-7.56-11.32-8.25-11.57-0.69-0.26-1.94-0.46-2.77-0.46-0.84 0-1.81 0.79-2.15 1.75zm692.67 21.62c-2.48 0.69-6.3 2.12-8.49 3.19-2.19 1.07-5.67 3.51-7.72 5.44-2.05 1.92-3.74 4.29-3.76 5.25-0.02 0.96 0.87 2.65 1.97 3.75 1.1 1.1 2.9 2 4 2 1.1 0 2.9-0.45 4-1 1.1-0.55 2-1.45 2-2 0-0.55-1.01-0.99-2.25-0.98-1.24 0.01-3.15-0.63-4.25-1.42-2-1.44-2-1.44 0.05-4.01 1.17-1.46 4.62-3.47 8-4.65 3.27-1.14 8.65-2.34 11.95-2.66 3.33-0.32 8.89-0.02 12.5 0.67 3.58 0.69 8.52 2.28 11 3.53 2.48 1.25 6.08 4.05 8 6.23 1.92 2.17 3.95 4.77 4.5 5.76 0.83 1.52 1.37 1.63 3.25 0.67 1.24-0.63 2.25-1.82 2.25-2.64 0-0.83-1.74-3.41-3.87-5.75-2.12-2.34-6.51-5.66-9.75-7.39-3.23-1.73-8.24-3.64-11.13-4.25-2.89-0.61-8.06-1.08-11.5-1.04-3.44 0.03-8.27 0.62-10.75 1.3zm-356.01 8.38c-1.14 3.71-2.73 10.57-3.54 15.25-0.81 4.67-1.47 10.64-1.46 13.25 0.01 2.61 0.46 5.65 1.01 6.75 0.55 1.1 1.68 2 2.5 2 1.22 0 1.39-0.99 0.91-5.25-0.33-2.98 0.08-9.35 0.96-14.75 0.85-5.23 2.47-12.39 3.59-15.93 1.13-3.53 1.83-6.79 1.55-7.25-0.28-0.45-1.17-0.82-1.98-0.82-0.94 0-2.21 2.42-3.54 6.75zm77.51-5.13c-3.85 0.82-9.81 2.81-13.25 4.43q-6.25 2.95-8.25 6.2c-1.17 1.9-1.99 5.01-2 7.5 0 3.48 0.32 4.2 1.75 3.99 1.25-0.19 1.93-1.54 2.38-4.75 0.43-3.1 1.44-5.19 3.25-6.75 1.45-1.25 5.44-3.13 8.88-4.19 3.43-1.06 8.83-2.4 11.99-2.99 4.59-0.85 5.7-1.41 5.48-2.81-0.14-0.96-0.93-1.83-1.75-1.93-0.81-0.1-4.63 0.49-8.48 1.3zm294.5 7.67c-4.12 1.8-11.55 5.44-16.5 8.09-6.88 3.69-9.65 4.69-11.75 4.22-2.41-0.52-2.72-0.32-2.5 1.65 0.2 1.76-1.21 3.28-6.5 7-3.71 2.61-8.11 6.66-9.78 9-1.67 2.34-2.87 4.7-2.67 5.25 0.2 0.55 1 1.13 1.78 1.28 0.78 0.15 2.32-1.34 3.42-3.32 1.1-1.98 4.7-5.73 8-8.33 3.3-2.6 7.24-5.5 8.75-6.43 1.7-1.05 3.61-1.45 5-1.04 1.24 0.36 4.16 1.48 6.5 2.5 4.17 1.8 4.22 1.89 2.75 4.34-0.83 1.37-1.5 3.4-1.5 4.5 0 1.1 0.9 2.45 2 3 1.38 0.69 2.7 0.64 4.25-0.15l2.25-1.15c-3.49-1.32-4.73-2.15-5-2.7-0.27-0.55 1.3-2.69 3.49-4.75 2.2-2.06 4-4.31 4-5 0.01-0.69-0.35-1.25-0.79-1.25-0.44 0-1.23 0.46-1.75 1.01q-0.94 1.02-7.45-1.35l-6.5-2.37c6.98-4.02 13.84-7.46 19.75-10.24 5.91-2.78 10.75-5.5 10.75-6.05 0-0.55-0.56-0.99-1.25-0.99-0.69 0.01-4.62 1.49-8.75 3.28zm16.97 18c-1.94 0.67-5.2 2.45-7.25 3.96-2.05 1.51-3.95 3.76-4.23 5-0.38 1.65-1.71 2.58-5 3.5-2.77 0.77-4.49 1.83-4.49 2.75 0 1.11 0.71 1.35 2.75 0.91 1.51-0.33 3.46-0.84 4.33-1.14 1.36-0.46 1.41-0.2 0.4 1.85-0.72 1.45-5.25 4.6-11.58 8.05-5.72 3.12-11.21 6.72-12.19 8-0.99 1.28-1.78 3.12-1.75 4.08 0.02 1.07 1.11 2 2.79 2.39 1.51 0.35 5 0.34 7.75-0.02l5-0.65c-5.9 5.84-7.86 8.65-8.17 10.03-0.31 1.37-0.05 3.51 0.56 4.75 0.63 1.27 2.74 2.74 4.86 3.39 2.28 0.69 6.49 0.89 10.75 0.5l7-0.63c-6.98 3.2-9.8 4.88-10.78 5.81-0.98 0.92-1.77 2.47-1.75 3.43 0.02 0.96 1.04 2.43 2.28 3.26 1.69 1.13 4.87 1.48 12.75 1.38 5.77-0.08 11.51-0.53 12.75-1.01 1.24-0.49 2.25-1.22 2.25-1.63 0-0.41-5.73-0.75-12.73-0.75-11.35 0-12.75-0.19-13-1.75-0.15-1 0.7-2.24 1.98-2.88 1.24-0.62 6.52-2.19 11.75-3.48 5.23-1.3 9.83-2.93 10.23-3.62 0.41-0.7 0.76-1.72 0.78-2.27 0.02-0.61-1.13-0.71-2.99-0.25-1.72 0.43-3.13 0.35-3.27-0.19-0.15-0.56-4.18-0.36-10 0.5-6.72 0.99-10.92 1.15-13.5 0.51-2.06-0.52-4.31-1.64-5-2.5-1.01-1.27-0.96-2.05 0.25-4.07 0.83-1.38 3.19-3.54 5.25-4.82 2.06-1.28 5.66-3.08 8-4 2.34-0.92 6.61-1.97 9.5-2.33 3.96-0.49 5.47-0.31 6.16 0.75 0.65 1.01 0.09 2.02-2 3.59-1.6 1.21-4.49 2.64-6.41 3.17-1.92 0.53-4.85 1.27-6.5 1.63-2.07 0.46-3.46 0.19-4.5-0.86-1.27-1.29-1.81-1.32-3.5-0.19-1.79 1.2-1.84 1.52-0.5 3 1.01 1.11 3.06 1.63 6.25 1.6 2.61-0.02 7.11-0.91 10-1.96 2.89-1.06 6.75-3.42 8.58-5.25 2.05-2.04 3.21-4.09 3-5.3-0.18-1.09-1.45-2.57-2.83-3.3-1.44-0.75-4.2-1.11-6.5-0.84-2.2 0.26-5.35 0.82-7 1.25-2.23 0.57-2.81 0.46-2.25-0.44 0.41-0.66 0.52-1.2 0.25-1.2-0.27 0-4.44 1.13-9.25 2.52-4.81 1.38-10.21 2.51-12 2.5-2.09-0.01-3.14-0.47-2.94-1.27 0.16-0.69 5-3.62 10.75-6.52 5.74-2.9 11.7-6.5 13.24-8 1.54-1.5 3-3.74 3.25-4.98 0.34-1.69 1.76-2.68 5.7-3.96 2.89-0.94 6.49-2.74 8-4 1.51-1.26 2.76-3.3 2.77-4.54 0.01-1.24-0.56-2.82-1.25-3.52-0.7-0.69-1.72-1.24-2.27-1.2-0.55 0.03-2.59 0.6-4.53 1.26zm-822.27 3.46c-0.35 0.41 0.02 1.99 0.83 3.5 0.81 1.51 4.96 6.21 9.22 10.44 4.26 4.23 11.3 10.64 15.64 14.25 7.06 5.88 7.66 6.64 5.75 7.31-1.18 0.41-2.41 1.76-2.74 3-0.33 1.26 0.16 3.79 1.11 5.75 0.94 1.92 3.79 5.74 6.35 8.48 2.55 2.74 3.52 3.99 2.14 2.77-1.37-1.21-3.06-2.22-3.75-2.23-0.69-0.01-1.25 0.21-1.25 0.48 0 0.27 1.42 1.74 3.16 3.25 1.73 1.51 5.11 5.34 7.5 8.5 2.39 3.16 4.63 7.21 4.99 9 0.53 2.66 0.26 3.48-1.5 4.5-1.79 1.04-3.11 0.91-7.9-0.8-3.16-1.13-7.94-3.71-10.62-5.75-2.68-2.03-5.83-5.19-7-7.01q-2.13-3.32-1.13-4.31c0.66-0.66 2.19-0.53 4.5 0.38 1.93 0.76 5.63 3.37 8.22 5.81 2.88 2.69 4.74 5.31 4.75 6.68 0.02 1.57 0.63 2.25 2.03 2.25 1.52 0 1.99-0.66 1.98-2.75-0.02-1.96-1.39-4.06-4.75-7.28-2.6-2.49-6.75-5.54-9.23-6.78-2.47-1.25-5.8-2.13-7.4-1.98-1.59 0.16-3.34 0.96-3.88 1.79-0.55 0.82-0.67 2.85-0.28 4.5 0.39 1.67 3 5.23 5.88 8.04 2.85 2.77 8.11 6.49 11.68 8.27 4.62 2.29 7.88 3.22 11.25 3.21 4-0.02 5.07-0.45 6.81-2.77 1.42-1.88 1.87-3.54 1.44-5.25-0.34-1.38-1.72-4.19-3.06-6.25-1.34-2.06-4.13-5.64-6.19-7.94l-3.75-4.19c7.75 5.2 11.69 6.97 13.77 7.3 3.5 0.54 3.76 0.41 3.74-1.92-0.01-1.38-0.97-4.08-2.14-6-1.17-1.93-3.53-5.25-5.25-7.38l-3.12-3.89c14.37 7.42 20.02 9.55 23 9.93 3.75 0.49 5.21 0.3 5.86-0.76 0.47-0.77 0.47-1.76 0-2.2-0.47-0.44-2.88-0.9-5.36-1.03-2.72-0.13-7.46-1.64-12-3.81-4.12-1.98-11.53-6.47-16.45-9.98-4.92-3.51-14.6-11.83-21.5-18.49-6.9-6.66-13.67-13.74-15.05-15.74-1.37-2-3.21-3.64-4.08-3.64-0.87-0.01-1.87 0.33-2.22 0.74zm65.98 17.25c2.93 4.4 5.77 9.8 6.32 12 0.55 2.2 0.78 4.9 0.5 6-0.35 1.39-1.34 2-3.25 2.01-1.51 0.01-4.77-1.31-7.25-2.94-2.47-1.63-5.21-3.55-6.08-4.26-0.87-0.72-3.23-3.45-5.25-6.06-2.02-2.61-3.67-5.88-3.67-7.25 0-1.56 0.57-2.5 1.5-2.5 0.83 0 3.35 1.69 5.6 3.75 2.26 2.06 4.96 5.21 6 7 1.05 1.79 1.79 4.26 1.65 5.5-0.19 1.68 0.32 2.31 2 2.5 1.84 0.2 2.26-0.25 2.29-2.5 0.02-1.51-1.44-4.99-3.25-7.72-1.81-2.73-5.2-6.44-7.54-8.25-2.74-2.11-5.4-3.3-7.5-3.32-1.79-0.03-3.81 0.65-4.5 1.5-0.71 0.87-1 2.73-0.68 4.29 0.31 1.51 2 4.96 3.75 7.67 1.75 2.7 5.21 6.7 7.68 8.88 2.48 2.18 6.3 4.8 8.5 5.81 2.2 1.02 5.46 1.86 7.25 1.87 1.94 0.01 4.06-0.79 5.25-1.98 1.1-1.1 2-3.24 2-4.75 0-1.51-1.29-5.45-2.85-8.75-1.57-3.3-4.72-8.36-7-11.25-2.28-2.89-4.74-5.25-5.47-5.25-0.76 0 0.94 3.4 4 8zm142.3 27.25c-0.02 0.69 1.9 3.27 4.25 5.75 2.36 2.48 5.14 6.3 6.17 8.5 1.04 2.2 2.12 5.57 2.41 7.5 0.36 2.48-0.23 5.1-2.05 9-1.86 4.02-4 6.58-7.91 9.49-2.94 2.19-8.16 5-11.6 6.25-3.44 1.24-10.41 2.72-15.5 3.27-5.09 0.56-11.5 1.71-14.25 2.56-2.75 0.85-7.14 3.1-9.75 4.99-2.61 1.89-5.99 5.58-7.5 8.19-2.18 3.78-2.73 5.98-2.7 10.75 0.03 4.05 0.71 7.3 2.11 10 1.14 2.2 4.5 6.18 7.46 8.85 2.96 2.67 8.53 6.37 12.38 8.23 3.85 1.85 13.3 4.98 21 6.95 7.7 1.97 16.66 4.79 19.9 6.28 3.25 1.48 6.75 3.81 7.79 5.19 1.03 1.37 1.87 4.07 1.87 6-0.01 2.26-1.17 5.24-3.29 8.44-1.8 2.71-6.42 7.58-10.27 10.82-3.85 3.23-10.37 7.99-14.48 10.56-4.12 2.57-12.19 7.38-17.93 10.68-6.45 3.7-11.62 7.47-13.52 9.85-2.68 3.36-3.07 4.62-3.07 10.03 0 5.31 0.5 7.03 3.5 12 1.93 3.19 9.24 11.83 16.25 19.21 7.01 7.37 12.76 13.75 12.77 14.16 0.01 0.41-3.7 1.53-8.25 2.48-4.55 0.95-12.32 2.19-17.27 2.74-4.95 0.56-10.35 1.03-12 1.04-2.52 0.03-3.12-0.45-3.75-2.99-0.41-1.66-2.66-5.09-5-7.62-3.16-3.42-7.13-5.99-15.5-10-6.38-3.06-11.68-6.27-12.25-7.4-0.55-1.1-1-2.9-1-4 0-1.1 0.68-4.48 1.5-7.5 1.39-5.08 1.82-5.62 5.75-7.11 2.93-1.11 5.49-1.39 8.25-0.89 2.2 0.39 5.08 0.78 6.4 0.86 1.32 0.07 2.56-0.42 2.75-1.11 0.19-0.69-1.34-1.97-3.4-2.86-2.55-1.1-5.51-1.46-9.25-1.14-3.03 0.26-6.18 0.77-7 1.14-1.19 0.52-1.65-0.48-2.25-4.86-0.44-3.25-0.34-6.56 0.25-8.03 0.55-1.38 2.46-3.23 4.25-4.13 1.79-0.9 9.1-2.95 16.25-4.56 7.15-1.6 17.05-4.59 22-6.62 4.95-2.04 12.35-5.73 16.45-8.2 4.1-2.47 9.54-6.51 12.08-8.99 2.71-2.64 5.15-6.16 5.89-8.5 1.03-3.27 1.02-4.52-0.08-6.84-0.85-1.79-3.19-3.72-6.34-5.23q-5-2.4-17-3.96c-6.6-0.85-14.7-2.26-18-3.11-3.3-0.86-8.59-2.87-11.75-4.46-3.16-1.6-7.21-4.19-9-5.77-1.79-1.58-4.6-5.29-6.25-8.25-2.64-4.73-3-6.35-3-13.38 0-6.72 0.46-8.96 2.85-14 1.57-3.3 5.23-8.48 8.13-11.5 3.5-3.65 7.59-6.59 12.15-8.72 3.78-1.78 15.42-5.43 25.87-8.13 10.45-2.69 20.8-5.8 23-6.91 2.2-1.12 4.78-2.86 5.74-3.88 0.95-1.02 2.12-3.21 2.6-4.86q0.86-3-0.51-7.5c-0.75-2.48-3.05-6.64-5.1-9.27-2.05-2.62-4.29-4.75-4.98-4.75-0.69 0.01-1.25 1.14-1.25 2.52 0 1.37 0.45 2.73 1 3 0.55 0.27 2.36 2.64 4.01 5.25 1.66 2.61 3.03 6.1 3.04 7.75 0.01 1.65-0.79 3.74-1.77 4.63-0.98 0.9-3.58 2.53-5.78 3.62-2.2 1.09-9.85 3.41-17 5.16-7.15 1.74-17.28 4.59-22.5 6.33-5.22 1.74-11.97 4.82-15 6.85-3.03 2.02-7.38 6.1-9.68 9.05-2.3 2.95-5.17 7.61-6.38 10.36-1.34 3.04-2.4 7.94-2.71 12.5-0.36 5.33-0.04 8.95 1.1 12.5 0.88 2.75 3.11 7.02 4.96 9.5 1.84 2.48 6.24 6.44 9.78 8.81 3.54 2.37 9.8 5.37 13.93 6.67 4.12 1.3 13.35 3.09 20.5 3.98 7.56 0.94 14.67 2.41 17 3.51 2.2 1.04 4.29 2.71 4.64 3.71 0.35 1-0.1 3.35-1 5.22-0.9 1.87-4.11 5.36-7.14 7.76-3.03 2.4-9.78 6.56-15 9.25-5.22 2.68-13.1 6-17.5 7.38-4.4 1.37-10.7 3.02-14 3.68-3.3 0.65-8.41 1.94-11.36 2.86-2.95 0.92-6.77 2.86-8.5 4.31l-3.14 2.64c-0.04 19.12-0.58 25.27-1.41 27.72-0.78 2.32-1.12 5.89-0.81 8.5 0.42 3.53 1.26 5.09 3.88 7.26 1.84 1.52 6.19 3.99 9.67 5.5l6.32 2.74c-5.54 2.71-8.06 4.74-9.17 6.25-1.82 2.48-1.94 3.6-1.25 11.51 0.76 8.64 0.74 8.75-1.48 8.75-1.24-0.01-3.6 0.66-5.25 1.49-1.65 0.83-3.68 2.51-4.51 3.75-0.83 1.24-1.5 3.49-1.5 5q0.01 2.75 2.76 4.78c1.51 1.12 3.31 2.02 4 2 0.98-0.02 1 0.57 0.1 2.72-0.63 1.51-0.86 3.99-0.5 5.5 0.38 1.59 2.02 3.59 3.9 4.75 1.79 1.09 4.82 2.03 6.75 2.08l3.5 0.08c-4.65 1.62-7.03 3.05-8.29 4.22-1.25 1.16-2.49 2.91-2.75 3.87-0.25 0.96 0.22 3.1 1.04 4.75 0.91 1.81 2.85 3.5 4.92 4.25l3.41 1.25c-3.02 3.87-3.89 5.67-3.88 6.5 0 0.83 0.92 2.51 2.03 3.75 1.11 1.24 3.71 2.75 5.77 3.37 2.06 0.61 5.78 0.85 8.25 0.52 2.47-0.33 5.74-1.51 7.25-2.62 1.94-1.42 2.75-2.9 2.75-5.02 0-1.85-0.87-3.78-2.25-5.02-1.24-1.11-2.93-2-3.75-1.98q-1.51 0.05 1.29-2.73c2.16-2.15 2.72-3.55 2.5-6.24-0.21-2.54-1.09-4.02-3.29-5.55-1.65-1.14-5.03-2.4-7.5-2.78l-4.5-0.71c-4.96-21.3-6.76-30.6-7.2-34.41l-0.8-6.92c5.43 1.05 12.85 1.38 20 1.4 7.15 0.03 17.05-0.44 22-1.04 4.95-0.6 12.82-1.8 17.5-2.66 4.68-0.87 10.75-2.41 13.5-3.43 2.75-1.01 5.98-2.88 7.18-4.14 1.2-1.26 2.67-3.53 3.25-5.04 0.73-1.89 0.76-4.01 0.07-6.75-0.8-3.21-1.55-4.11-3.75-4.57-1.51-0.31-7.59-0.53-13.5-0.5l-10.75 0.07c-10.15-12.01-14.2-17.75-15.56-20.5-1.35-2.75-2.46-6.01-2.45-7.25 0-1.24 0.69-3.6 1.51-5.25 0.82-1.65 2.96-4.06 4.75-5.35 1.79-1.29 7.53-4.74 12.75-7.67 5.22-2.93 13.55-8.06 18.49-11.4 4.94-3.34 11.94-9.01 15.56-12.58 3.61-3.58 7.4-8.3 8.43-10.5 1.02-2.2 1.89-5.84 1.94-8.08 0.06-2.98-0.66-5.06-2.67-7.75-1.72-2.29-5.09-4.79-9-6.66-3.44-1.64-10.98-4.09-16.75-5.45-5.77-1.36-13.2-3.41-16.5-4.56-3.3-1.14-8.7-3.58-12-5.42-3.3-1.83-7.8-5.34-10-7.79-2.2-2.45-4.53-6.22-5.18-8.38-0.64-2.15-0.94-5.26-0.66-6.91 0.28-1.65 1.26-4.54 2.18-6.42 0.91-1.88 3.23-4.7 5.16-6.27 1.93-1.57 5.75-3.69 8.5-4.72 2.75-1.02 9.28-2.32 14.5-2.89 5.22-0.56 12.43-2.01 16-3.21 3.57-1.21 8.94-3.84 11.92-5.84 2.98-2.01 6.58-5.21 8-7.12 1.42-1.91 3.12-5.06 3.79-7 0.66-1.94 1.22-5.55 1.24-8.03 0.02-2.78-0.92-6.5-2.46-9.75-1.37-2.89-4.4-7.29-6.74-9.79-2.34-2.5-5.04-4.52-6-4.5-0.96 0.02-1.76 0.6-1.77 1.29zm628.14 2.3c-1.32 0.86-2.33 1.99-2.25 2.51 0.07 0.52 1.93 0.94 4.13 0.94 2.2 0 4.9-0.45 6-1 1.1-0.55 2-1.68 2-2.5 0-1.07-1.09-1.5-3.75-1.51-2.06 0-4.82 0.7-6.13 1.56zm-302.62 4.61c-1.1 0.61-2.74 2.05-3.65 3.22-0.91 1.17-1.47 2.68-1.25 3.37 0.22 0.69 0.96 1.24 1.65 1.23 0.69-0.01 2.25-1.03 3.48-2.25 1.44-1.44 2.78-1.96 3.75-1.48 0.84 0.41 1.97 1.87 2.52 3.25 0.55 1.37 0.98 4.41 0.96 6.75-0.03 3.36-1.01 5.71-4.71 11.25-2.57 3.85-5.48 9.14-6.46 11.75-0.99 2.61-1.8 5.76-1.82 7-0.02 1.24 0.77 3.03 1.75 3.97 0.98 0.95 3.36 1.74 5.28 1.76 1.92 0.02 4.63-0.73 6-1.68 1.38-0.94 3.05-2.4 3.72-3.25 0.67-0.85 1.23-2.11 1.25-2.8 0.02-0.69-0.64-1.48-1.47-1.75-0.83-0.28-2.83 0.83-4.5 2.5-1.65 1.65-3.79 2.88-4.75 2.74-0.97-0.14-1.86-1.26-2-2.5-0.14-1.23 0.93-4.6 2.37-7.49 1.45-2.89 4.82-7.61 7.5-10.5 3.37-3.62 4.88-6.1 4.89-8 0.01-1.51-0.67-5.11-1.5-8-0.98-3.42-2.56-6.12-4.51-7.75-1.65-1.38-3.79-2.49-4.75-2.47-0.96 0.02-2.65 0.53-3.75 1.13zm316.82 8.03c-2.3 1.16-4.89 3.16-5.75 4.45-1.26 1.9-2.45 2.36-6.07 2.36-3.33 0-4.5 0.39-4.5 1.5 0 1.12 1.19 1.5 4.72 1.5 4.67 0 4.7 0.02 2.75 1.9-1.08 1.05-7.14 3.5-13.47 5.46-6.33 1.95-12.51 4.46-13.75 5.59-1.24 1.13-2.26 2.39-2.27 2.8-0.01 0.41 0.56 1.58 1.25 2.6 0.92 1.34 3.07 2.03 7.77 2.5l6.5 0.65c-5.28 2.32-7.87 4.24-9.16 5.75-1.29 1.51-2.34 3.87-2.34 5.25 0 1.56 1.03 3.27 2.75 4.55 1.51 1.13 4.33 2.48 6.25 3 1.92 0.53 6.42 1.24 10 1.59 3.58 0.35 8.19 0.35 10.25 0 2.06-0.35 3.75-0.98 3.76-1.39 0-0.41-4.16-1.03-9.25-1.38-5.52-0.37-11.03-1.38-13.65-2.5-2.41-1.03-4.77-2.66-5.25-3.62-0.54-1.11-0.4-2.35 0.39-3.4 0.69-0.9 3.28-2.53 5.75-3.61 2.93-1.28 7.64-2.14 13.5-2.45 6.56-0.34 9.51-0.11 10.9 0.87 1.05 0.74 1.61 1.9 1.25 2.59-0.36 0.69-2.34 1.7-4.4 2.24-2.06 0.55-5.89 1-8.5 1-2.73 0.01-6.02-0.73-7.74-1.74-2.34-1.37-3.26-1.49-4.25-0.54-1.01 0.97-0.97 1.52 0.24 2.82 0.83 0.88 3.19 2.02 5.25 2.54 2.37 0.59 6.23 0.56 10.5-0.07 3.71-0.55 8.1-1.81 9.75-2.8 1.97-1.18 3.09-2.72 3.25-4.5 0.17-1.87-0.45-3.17-2-4.22-1.24-0.84-5.01-1.85-8.39-2.25-4.81-0.57-5.99-1.04-5.5-2.18 0.5-1.12 0.08-1.3-1.86-0.8-1.37 0.35-6.33 0.95-11 1.33-5.96 0.49-9.25 0.33-11-0.52-1.56-0.77-2.12-1.55-1.5-2.09 0.55-0.47 5.39-2.01 10.75-3.41 5.36-1.41 11.21-3.28 13-4.16 1.79-0.88 4.71-3.13 6.5-5 2.15-2.25 4.18-3.4 6-3.41 1.51 0 4.44-0.45 6.5-1 2.06-0.54 4.65-2.12 5.75-3.49 1.54-1.92 1.77-2.96 1-4.5-0.8-1.59-1.97-1.99-5.75-1.95-2.73 0.03-6.53 0.94-8.93 2.14zm-869.63 9.92c-2.63 2.58-3.64 4.59-4.23 8.39-0.46 2.95-0.31 7.66 0.35 11.5 0.62 3.57 2.59 9.42 4.38 13 1.78 3.57 5.51 8.76 8.28 11.53 2.77 2.76 7.51 6.22 10.53 7.68 3.03 1.46 7.37 3.02 9.65 3.47 3.17 0.63 4.54 0.46 5.79-0.68 0.91-0.83 1.64-2.85 1.64-4.5-0.01-1.65-0.82-3.78-1.8-4.72-0.98-0.95-2.57-1.74-3.53-1.75-1.63-0.03-1.64 0.19-0.17 3.22 0.87 1.79 1.32 3.81 1 4.5-0.32 0.69-1.59 1.25-2.83 1.24-1.24 0-4.5-1.29-7.25-2.85-2.75-1.57-7.6-5.73-10.77-9.24-3.73-4.13-6.66-8.61-8.25-12.65-1.81-4.55-2.48-8.15-2.48-13.25 0-4 0.64-8.5 1.5-10.5 0.83-1.93 2.62-3.95 4-4.5 1.49-0.6 3.61-0.66 5.25-0.15 1.51 0.47 4.1 1.54 5.75 2.38 1.65 0.84 5.66 4.39 8.92 7.9 3.25 3.5 7.19 9.07 8.75 12.37 1.55 3.3 2.82 7.35 2.82 9-0.02 2.86 0.23 3.03 5.25 3.74 2.89 0.41 8.86 0.29 13.26-0.26 4.4-0.56 9.8-1.51 12-2.1 2.2-0.6 5.69-1.95 7.75-2.99 2.06-1.04 4.24-2.9 4.84-4.14 0.59-1.24 0.82-2.81 0.5-3.5-0.33-0.69-1.26-1.25-2.09-1.25-0.82 0-1.48 0.34-1.46 0.75 0.02 0.41-1.66 1.93-3.75 3.37-2.08 1.44-6.94 3.58-10.79 4.77-3.85 1.18-9.78 2.48-13.17 2.88l-6.17 0.73c-1.09-6.2-2.58-10.24-4.03-12.97-1.45-2.74-5.33-7.74-8.63-11.11-3.3-3.38-8.47-7.38-11.5-8.9-3.02-1.52-7.83-2.99-10.68-3.27-4.85-0.49-5.4-0.31-8.63 2.86zm2.86 21.89c-0.3 0.55 2.94 3 7.2 5.45 4.26 2.44 12.48 6.66 18.25 9.36 5.78 2.7 14.1 6.17 18.5 7.71 5.6 1.96 10.09 2.82 14.97 2.89 6.21 0.08 7.02-0.13 7.39-1.91 0.37-1.79 0.05-1.93-2.97-1.32-1.87 0.37-6.31 0.09-9.89-0.63-3.57-0.73-11.67-3.44-18-6.02-6.32-2.59-16.45-7.37-22.5-10.64-6.05-3.26-11.32-5.92-11.7-5.91-0.39 0.01-0.95 0.47-1.25 1.02zm461.93 8.5c-0.27 0.82-0.25 1.95 0.02 2.5 0.28 0.55 2.08 1 4 1 1.92 0 4.96 0.6 6.75 1.34 1.79 0.74 4.62 2.88 6.29 4.75 1.68 1.88 3.86 5.43 4.86 7.91 1.15 2.86 1.66 6.14 1.4 9-0.33 3.69-1.43 5.76-6.11 11.5-3.14 3.85-7 9.48-8.57 12.5-1.58 3.02-2.7 6.06-2.5 6.75 0.21 0.69 1.05 1.25 1.88 1.25 0.85 0 2.67-2.5 4.2-5.75 1.73-3.69 5.63-8.8 10.9-14.25 4.76-4.93 12.02-11.02 17.3-14.5 5.01-3.3 9.11-6.56 9.1-7.25 0-0.69-1.35-2.15-3-3.25-1.65-1.1-3.64-3.24-4.43-4.75-0.78-1.51-1.12-3.23-0.75-3.82 0.37-0.59 1.47-1.38 2.43-1.75 0.96-0.38 1.6-1.24 1.42-1.93-0.18-0.69-1.53-1.36-3-1.5-1.83-0.17-3.16 0.46-4.23 2-1.11 1.61-1.35 3.24-0.82 5.75 0.4 1.92 1.98 4.85 3.5 6.5l2.76 3c-4.95 2.97-7.96 5.06-9.88 6.57l-3.5 2.75c-0.99-7.22-2.18-11.12-3.27-13.32-1.09-2.2-3.84-5.69-6.11-7.75-2.51-2.28-6.17-4.34-9.37-5.26-2.89-0.83-6.5-1.51-8.02-1.5-1.59 0.01-2.98 0.65-3.25 1.51zm-26.46 52.75c0.01 1.82-0.23 2.01-1.25 0.98-0.7-0.69-1.61-1.26-2.02-1.25-0.41 0.01-0.75 0.58-0.76 1.27 0 0.69-1.02 1.25-2.25 1.25-1.58 0-2.31 0.66-2.49 2.25-0.14 1.24-0.59 2.26-1 2.27-0.41 0.01-1.32-0.56-2.02-1.25-1.02-1.03-1.26-0.93-1.25 0.48 0.02 1.25-0.55 1.61-1.98 1.25-1.1-0.27-2.01-0.16-2.03 0.25-0.02 0.41 0.89 1.65 2.03 2.75 1.23 1.19 2.05 1.5 2.03 0.75-0.02-0.69 0.42-1.02 0.97-0.75 0.55 0.27 0.99-0.29 0.98-1.25-0.01-1.41 0.23-1.51 1.25-0.48 0.7 0.69 1.61 1.26 2.02 1.25 0.41-0.01 0.53-1.15 0.25-2.52-0.44-2.22-0.22-2.44 2-2 1.73 0.35 2.76-0.04 3.36-1.25 0.62-1.27 1.04-1.41 1.5-0.5 0.35 0.69 1.09 1.25 1.64 1.25 0.55 0 0.78-1.13 0.5-2.5-0.45-2.27-0.25-2.45 2.25-1.94l2.75 0.55c-3.87-2.35-5.34-3.06-5.75-3.07-0.41-0.02-0.74 0.97-0.73 2.21zm5.31 3.83c-3.2 2.81-8.98 6.97-12.83 9.25-3.85 2.27-10.82 5.43-15.5 7.02-4.97 1.69-11.62 3.11-16 3.41-4.59 0.32-9.05 0.05-11.5-0.7-3.05-0.94-4.24-0.95-5-0.06-0.71 0.83 0.31 2.32 3.5 5.14 2.48 2.18 6.98 4.93 10 6.11 4.32 1.69 7.65 2.15 15.5 2.14q10 0 16-1.79c3.3-0.98 9.11-3.43 12.9-5.44 3.8-2.01 7.75-4.79 8.78-6.16 1.31-1.74 1.55-2.8 0.82-3.5q-1.06-1.01-2.78 0.26c-0.95 0.69-3.74 2.6-6.22 4.25-2.47 1.64-8.1 4.16-12.5 5.6-5.7 1.86-10.3 2.64-16 2.71-4.4 0.05-10.02-0.52-12.5-1.26l-4.5-1.36c13.95-2.81 21.38-4.82 25.5-6.28 4.13-1.46 10.42-4.06 13.99-5.79 3.57-1.72 8.62-5.15 11.23-7.63 3.19-3.03 4.78-5.38 4.86-7.19 0.07-1.48-0.33-2.95-0.89-3.26-0.56-0.32-3.65 1.72-6.86 4.53zm-28.2 7.13c-0.81 2-1.01 2.07-1.53 0.54-0.33-0.96-1.05-1.75-1.6-1.75-0.55 0-0.99 0.79-0.98 1.75 0.01 1.41-0.23 1.51-1.25 0.48-0.7-0.69-1.61-1.26-2.02-1.25-0.41 0.01-0.52 0.69-0.25 1.52 0.28 0.82 0.05 1.5-0.5 1.5-0.55 0-1.22-0.45-1.5-1-0.27-0.55-0.95-1-1.5-1-0.55 0-0.99 1.01-0.97 2.25l0.04 2.25c-3.94-3.81-4.13-3.83-4.1-2.25 0.02 1.42-0.35 1.56-1.97 0.75-1.1-0.55-2.45-1-3-1-0.55 0-0.99 1.01-0.97 2.25l0.04 2.25c-3.94-3.81-4.13-3.83-4.1-2.25 0.02 1.42-0.35 1.56-1.97 0.75-1.1-0.55-2-0.77-2-0.5 0 0.27 0.45 1.4 1 2.5 0.83 1.67 1.42 1.83 3.5 1q2.5-1 2.5 0c0 0.55 0.45 1 1 1 0.55 0 0.99-1.24 0.97-2.75-0.03-2.56 0.09-2.64 1.75-1.19 0.98 0.86 2.23 1.53 2.78 1.49 0.55-0.05 1.56-0.41 2.25-0.82 0.69-0.4 1.25-0.28 1.25 0.27 0 0.55 0.45 1 1 1 0.55 0 1-1.13 1-2.5 0-1.38 0.23-2.5 0.5-2.5 0.28 0 1.41 0.56 2.53 1.25 1.32 0.81 2.28 0.9 2.75 0.25 0.4-0.55 1.47-1 2.39-1 0.91 0 2.04 0.35 2.5 0.78 0.46 0.43 1.06 0.76 1.33 0.74 0.28-0.03 0.39-1.16 0.25-2.53-0.14-1.37-0.02-2.49 0.25-2.49 0.28 0 1.4 0.45 2.5 1q2 1 1.5 0c-0.27-0.55-1.39-1.47-2.47-2.04-1.63-0.87-2.13-0.66-2.9 1.25zm-19.58 27.79c-0.3 0.55 1.03 4.37 2.95 8.5 2.03 4.35 4.66 8.31 6.25 9.43 1.51 1.06 5 2.44 7.75 3.06 2.75 0.62 6.57 0.98 8.49 0.82 2.42-0.22 3.57-0.85 3.75-2.06 0.21-1.42-0.5-1.75-3.74-1.75-3.31 0-4.1-0.39-4.57-2.25-0.31-1.24-0.32-2.48-0.02-2.75 0.3-0.27 1.28 0.17 2.18 1 1.45 1.34 1.75 1.31 2.77-0.21 1.08-1.61 1.24-1.61 2.9 0 1.67 1.62 1.76 1.57 1.75-1.04-0.01-2.49 0.25-2.69 2.74-2.13 2.66 0.6 2.68 0.57 0.75-0.97-1.1-0.87-2.56-1.6-3.25-1.62-0.69-0.02-1.23 0.98-1.21 2.22 0.04 2.25 0.04 2.25-1.96-0.25-1.64-2.04-2.02-2.18-2.05-0.75-0.02 0.96-0.37 1.76-0.78 1.77-0.41 0.01-1.2-0.46-1.75-1.04-0.68-0.72-1.53-0.01-2.69 2.24-1.37 2.65-1.8 2.94-2.25 1.53-0.31-0.96-1.01-1.75-1.56-1.75-0.55 0-0.98 0.79-0.96 1.75 0.04 1.45-0.21 1.54-1.5 0.5-0.84-0.69-1.99-1.02-2.54-0.75-0.55 0.27-2.69-2.89-4.75-7.03-2.06-4.15-4.29-7.52-4.95-7.5-0.66 0.02-1.45 0.48-1.75 1.03zm-159.18 72.07c-1.73 0.54-3.9 1.98-4.83 3.21-1.1 1.44-1.49 3.18-1.12 4.97 0.32 1.51 2.27 4.27 4.33 6.14l3.75 3.38c-4.26 0.95-7.19 2.74-9.25 4.59-2.06 1.84-4.87 3.94-6.25 4.65-1.37 0.72-5.65 2.38-9.5 3.69-3.85 1.31-7.8 3.15-8.78 4.09-0.98 0.94-1.79 3.06-1.79 4.71 0 1.65 1.03 4.35 2.28 6 1.25 1.65 3.18 3.77 4.28 4.72 1.11 0.95 3.81 2.45 6.01 3.35 2.94 1.19 5.99 1.5 11.5 1.15 4.44-0.28 9.54-1.34 12.5-2.6l5-2.13c-6.02 5.05-8.38 7.75-9.13 9.26-0.75 1.51-1.37 4.1-1.37 5.75 0 1.65 0.56 3.33 1.25 3.73 0.69 0.4 3.49 0.97 6.24 1.25 4.91 0.51 4.99 0.58 5.69 4.52 0.39 2.2 0.81 7.15 0.94 11 0.13 3.85-0.04 7.9-0.38 9-0.35 1.1-2.34 2.75-4.43 3.66-2.1 0.91-8.53 2.61-14.31 3.77-5.77 1.16-14.32 2.57-19 3.14-4.67 0.56-13 1.11-18.5 1.23-5.5 0.11-13.04-0.14-16.75-0.55-6-0.67-6.72-0.56-6.5 0.93 0.14 0.92 1.6 2.04 3.25 2.5 1.65 0.45 6.6 1.1 11 1.45 4.4 0.34 13.63 0.08 20.5-0.59 6.88-0.67 17.9-2.26 24.5-3.54 6.6-1.28 13.24-2.81 14.75-3.41 2.35-0.93 3.72-0.62 9.48 2.16 5.23 2.53 7.96 3.23 12.25 3.17 3.04-0.04 7.67-0.94 10.3-2 2.63-1.06 4.99-2.48 5.25-3.17 0.26-0.69-0.32-1.52-1.28-1.86-0.96-0.33-3.55 0.17-5.75 1.11-2.2 0.94-6.02 1.73-8.5 1.76-2.84 0.04-6.27-0.83-9.32-2.35-3.51-1.76-4.63-2.82-4.13-3.91 0.37-0.83 1.08-3.19 1.57-5.25 0.54-2.32 0.46-7.29-0.22-13-0.61-5.09-1.28-9.59-1.5-10-0.22-0.41 1.74-1.94 4.35-3.39 2.61-1.44 6.21-3.69 8-5 1.79-1.3 4.11-4.05 5.15-6.11 1.05-2.06 2.17-5.44 2.5-7.5 0.33-2.06 0.83-3.75 1.1-3.75 0.28 0 3.31 1.15 6.75 2.56 4.37 1.78 6.55 2.23 7.25 1.49q1.01-1.06-0.5-2.47c-0.82-0.77-4.2-2.53-7.5-3.9l-6-2.51c-1.82-9.04-3.28-13.81-4.42-16.42-1.95-4.46-1.97-4.79-0.33-5.48 0.96-0.41 5.8-0.74 10.75-0.75 7.22-0.02 9.69 0.38 12.5 2 2.13 1.22 4.37 3.77 5.72 6.5 1.99 4.02 2.25 6.28 2.52 21.98 0.21 12.34 0.7 18.24 1.65 20 0.75 1.37 2.32 3.52 3.48 4.78 1.17 1.25 2.92 2.26 3.88 2.25 0.96-0.02 1.75-0.7 1.75-1.53 0-0.83-0.69-2.51-1.52-3.75-1.12-1.65-1.77-6.94-2.44-19.75-0.5-9.63-1.32-18.85-1.83-20.5-0.5-1.65-1.59-4.35-2.42-6-0.83-1.65-3.26-4.46-5.4-6.25-2.55-2.12-5.78-3.62-9.39-4.35-3.03-0.61-8.19-0.82-11.5-0.47-3.3 0.35-7.35 1-9 1.43-2.73 0.72-3.4 0.35-7.5-4.15-2.47-2.71-5.85-5.76-7.5-6.76-1.65-1.01-4.8-2.06-7-2.34-2.2-0.29-5.41-0.08-7.13 0.46zm35.61 28.68c-0.01 1.37 1.78 2.18 8.25 3.72 4.55 1.09 9.06 2.1 10.02 2.25q1.76 0.29 1.75-1.72c0-1.66-1.33-2.34-7.75-3.99-4.26-1.1-8.76-2-10-2-1.47-0.01-2.26 0.59-2.27 1.74zm38.9 50.5c-0.07 0.14-0.28 2.5-0.47 5.25-0.22 3.24-1.66 7.64-4.08 12.5-2.05 4.12-6.45 11.1-9.77 15.5-3.32 4.4-11.67 13.78-18.55 20.85-6.88 7.07-15.55 15.17-19.26 18-3.82 2.91-6.76 5.91-6.75 6.9 0 1.01 0.74 1.74 1.75 1.72 0.96-0.01 6.7-3.77 12.75-8.36 6.05-4.58 14.71-11.66 19.24-15.72 4.53-4.06 10.8-10.31 13.92-13.89 3.13-3.58 7.43-9.2 9.57-12.5 2.13-3.3 4.58-8.48 5.43-11.5 1.11-3.89 1.35-7.11 0.84-11-0.4-3.02-0.9-6.06-1.11-6.75-0.22-0.69-1.06-1.25-1.89-1.25-0.82 0-1.56 0.11-1.62 0.25zm382.86 9.38c-0.38 0.48-0.19 1.77 0.41 2.87 0.6 1.1 2.5 3.46 4.22 5.24 1.72 1.77 2.77 3.57 2.33 4-0.44 0.42-1.67 0.2-2.75-0.49-1.07-0.69-1.94-0.91-1.93-0.5 0.01 0.41 1.25 1.96 2.75 3.43l2.73 2.69c-3.49 4.75-4.39 7.14-4.25 8.38 0.19 1.7 0.99 2.32 3.25 2.54 1.65 0.16 3.31-0.06 3.7-0.5 0.38-0.43-0.73-0.79-2.48-0.79-2.39 0-3.25-0.49-3.5-2-0.19-1.11 0.69-3.01 1.97-4.29 1.27-1.25 2.87-2.04 3.56-1.75 0.69 0.3 1.48-0.13 1.75-0.96 0.28-0.83 1.06-1.52 1.75-1.54 0.69-0.03 1.92 0.7 2.75 1.61 0.83 0.92 2.4 2.09 3.5 2.61 1.42 0.67 1.2 0.2-0.75-1.62-1.51-1.41-2.3-2.79-1.75-3.06 0.55-0.27 2.13-0.27 3.5 0 1.38 0.27 2.51 0.16 2.52-0.25 0.02-0.41-1.45-1.11-3.25-1.56-1.8-0.44-4.51-1.68-6.02-2.75-1.51-1.07-2.75-2.61-2.75-3.44 0-0.83-0.54-1.84-1.2-2.25-0.88-0.55-1.02-0.02-0.5 2 0.49 1.92 0.32 2.74-0.55 2.71-0.69-0.02-2.71-1.6-4.5-3.5-1.79-1.9-3.38-4.42-3.54-5.58-0.15-1.17-0.59-1.74-0.97-1.25zm28.78 8.87c-1.25 2.05-1.88 2.32-3.52 1.5-1.1-0.55-2.34-0.79-2.75-0.54-0.41 0.25 0.94 1.15 3 2 2.06 0.85 3.98 1.99 4.25 2.54 0.28 0.55 1.06 1.01 1.75 1.02 0.69 0.01 0.35-0.65-0.75-1.45-1.99-1.46-1.98-1.48 0.25-3.02 1.27-0.87 2.03-2.21 1.75-3.05-0.27-0.83-0.94-1.5-1.48-1.5-0.54 0-1.66 1.12-2.5 2.5zm-561.82 1.75c-0.23 0.69 0.19 2.49 0.94 4 0.75 1.51 2.04 2.75 2.86 2.75 0.83 0 1.51-0.11 1.52-0.25 0.02-0.14-0.66-1.94-1.5-4-0.83-2.06-1.94-3.75-2.45-3.75-0.52 0-1.13 0.56-1.37 1.25zm497.3 14.25c0 0.83 1.13 3.75 2.5 6.5 1.38 2.75 2.95 5.23 3.5 5.5 0.55 0.27 0.99 0.84 0.98 1.25 0 0.41-0.34 1.35-0.75 2.09-0.6 1.1-1.31 1.06-3.98-0.25-1.79-0.87-5.05-4.07-7.25-7.09-2.2-3.02-4.22-5.27-4.5-5-0.27 0.27 1.06 2.86 2.97 5.75 2.38 3.6 3.48 6.43 3.5 9 0.02 2.45-0.67 4.45-1.97 5.75-1.1 1.1-1.66 2.01-1.25 2.03 0.41 0.02 1.53-0.77 2.47-1.75 1-1.03 1.74-3.36 1.75-5.53q0.03-3.75 1.28-3.42c0.69 0.19 1.25 0.97 1.25 1.75 0 0.82 1.16 1.53 2.75 1.67 2.04 0.19 2.88-0.27 3.25-1.75 0.36-1.44 1.33-2 3.5-2 1.78 0 3.2-0.61 3.5-1.5 0.28-0.83 1.18-1.5 2-1.5 1.01 0 1.58-1.18 1.75-3.59 0.14-1.97-0.09-3.77-0.5-4-0.41-0.22-0.74 1.28-0.72 3.34l0.04 3.75-4.1-4c0.46 5.13 0.06 6-1.22 6.21-1.11 0.18-1.98-0.54-2.37-1.96q-0.62-2.24-1.25-0.98c-0.39 0.79-1.67-0.63-3.38-3.75-1.51-2.76-2.52-5.25-2.25-5.52 0.28-0.27 1.4 0.96 2.5 2.75 1.09 1.79 1.98 3.7 1.97 4.25-0.01 0.55 0.32 0.68 0.75 0.28 0.43-0.39-0.46-2.75-1.97-5.25-1.51-2.49-3.2-4.53-3.75-4.53-0.55 0-1 0.67-1 1.5zm24.98 0.25c-0.01 0.41 0.43 1.2 0.96 1.75 0.61 0.62 0.63 1.57 0.05 2.5-0.77 1.24-1.28 1.28-2.96 0.25-1.12-0.69-2.48-1.25-3.03-1.25-0.55 0-1.22 0.67-1.5 1.5-0.27 0.83-0.06 2.29 0.47 3.25 0.8 1.44 0.97 1.23 0.98-1.25 0.01-2.42 0.26-2.76 1.28-1.73 0.7 0.69 1.95 1.24 2.77 1.22 0.83-0.02 2.87-1.27 4.54-2.77 1.67-1.49 2.41-2.27 1.65-1.72-1.01 0.72-1.64 0.52-2.29-0.75-0.49-0.96-1.35-1.75-1.9-1.75-0.55 0-1.01 0.34-1.02 0.75zm-447.48 3.92c-0.46 0.36-0.76 1.26-0.67 2 0.1 0.73 2.98 2.26 6.42 3.4 3.44 1.14 7.26 1.82 8.5 1.5 1.42-0.36 2.15-1.22 1.98-2.32-0.18-1.25-1.55-1.94-4.75-2.4-2.46-0.36-5.72-1.15-7.23-1.75-1.51-0.61-2.9-1.1-3.08-1.1-0.19 0-0.71 0.3-1.17 0.67z"/>
		<path id="Path 2" class="s2" d="m495.42 109.75c-1.36 1.51-3.17 4.78-4.01 7.25-0.85 2.47-1.84 7.77-2.22 11.76-0.52 5.51-0.39 7.25 0.56 7.25 0.69-0.01 2.34-1.47 3.68-3.26 1.34-1.79 3.81-6.74 5.5-11 2.92-7.37 3-7.92 1.57-11.25-0.83-1.92-1.75-3.5-2.05-3.5-0.3 0-1.66 1.24-3.03 2.75zm23.76 10.75c-0.62 2.2-1.62 6.47-2.22 9.5-0.59 3.03-1.13 9.55-1.19 14.5-0.06 4.95 0.42 10.69 1.06 12.75 0.65 2.06 1.73 3.76 2.42 3.78 0.69 0.02 1.92-2.12 2.74-4.75 1.04-3.33 1.45-8.72 1.35-17.78-0.08-8.24-0.67-14.65-1.58-17.5l-1.45-4.5zm-137.26 4.11c-0.85 1-1.55 4.69-1.76 9.28-0.2 4.18-0.09 9.41 0.24 11.61 0.33 2.2 1.24 4.9 2.03 6 1.39 1.93 1.49 1.88 2.92-1.5 0.82-1.93 1.99-7.46 2.6-12.3 1-7.92 0.94-9.06-0.67-11.4-0.98-1.43-2.27-2.77-2.87-2.98-0.6-0.21-1.72 0.37-2.49 1.29zm240.27 0.87c-0.55 1.46-1.01 3.86-1.04 5.34-0.03 1.47 0.54 4.03 1.28 5.68 1.23 2.78 1.39 2.85 2.18 1 0.47-1.1 0.86-4.66 0.87-7.91 0.01-3.6-0.43-6.07-1.14-6.33-0.65-0.23-1.61 0.77-2.15 2.22zm-8.34 11.27c-1.78 2.61-3.83 6.78-4.56 9.25-0.72 2.47-1.31 4.84-1.3 5.25 0 0.41 0.69 1.43 1.51 2.25 1.29 1.29 1.88 1.31 4.25 0.12 1.51-0.75 3.99-3.23 5.5-5.5 2.64-3.95 2.69-4.26 1.25-7.62-0.82-1.93-1.5-4.62-1.5-6 0-1.37-0.43-2.5-0.96-2.5-0.53 0-2.41 2.14-4.19 4.75zm-288.81 4.5c0.02 1.27 1.87 4.08 4.25 6.46 2.32 2.32 4.77 4.23 5.46 4.25 0.92 0.03 0.82-0.82-0.37-3.21-0.89-1.79-2.69-4.71-4-6.5-1.31-1.79-3.05-3.25-3.88-3.25-0.9 0-1.48 0.9-1.46 2.25zm1.35 15c0.36 3.44 1.54 8.16 2.63 10.5 1.09 2.34 2.88 4.7 3.98 5.25 1.61 0.81 2.29 0.56 3.51-1.25 0.85-1.27 1.5-4.42 1.48-7.25-0.01-2.75-0.35-5.5-0.75-6.11-0.41-0.61-2.09-1.79-3.74-2.63-1.65-0.84-3.67-2.27-4.5-3.18-0.82-0.92-1.9-1.65-2.39-1.62-0.49 0.02-0.59 2.83-0.22 6.29zm-63.02 19.5c-0.37 1.51-0.21 5.22 0.35 8.25 0.56 3.03 2.32 8.18 3.9 11.46 1.59 3.28 3.44 6.09 4.13 6.25 0.72 0.17 1.49-1.08 1.82-2.96 0.32-1.79 0.05-7.07-0.59-11.75-0.63-4.68-1.57-9.29-2.07-10.25-0.5-0.96-1.81-2.2-2.91-2.75-1.1-0.55-2.44-1-2.98-1-0.55 0-1.29 1.24-1.65 2.75zm-60.36 12.25c0.02 1.38 1.08 4.3 2.37 6.5 1.28 2.2 3.07 4.34 3.98 4.75 1.44 0.66 1.4 0.11-0.37-4.5-1.1-2.89-2.91-6.15-4.01-7.25-2-2-2-2-1.97 0.5zm542.49 4.18c-1.1 0.61-4.25 2.99-7 5.29-2.75 2.29-6.12 5.85-7.5 7.91-1.65 2.48-2.16 4.08-1.5 4.71 0.65 0.62 3.47-0.29 8-2.59 3.85-1.96 8.69-5.01 10.76-6.78 2.22-1.91 4.05-4.55 4.5-6.49 0.71-3.15 0.62-3.27-2.26-3.22-1.65 0.03-3.9 0.55-5 1.17zm69.7 47.72c-1.21 1.16-2.87 3.67-3.7 5.6-0.82 1.93-1.51 4.51-1.53 5.75l-0.02 2.25c3.99-3.87 6.14-6.94 7.35-9.31 1.54-3 1.88-4.62 1.15-5.35-0.73-0.72-1.72-0.4-3.25 1.06zm-11.7 6.18c-2.2 1.09-5.92 3.89-8.27 6.21-3.12 3.07-4.2 4.88-4 6.71 0.2 1.83 0.94 2.58 2.77 2.8 1.38 0.17 4.86-0.84 7.75-2.25 5.13-2.49 5.26-2.66 5.57-7.3 0.18-2.61 0.58-5.54 0.88-6.5 0.31-0.96 0.28-1.73-0.07-1.71-0.35 0.02-2.43 0.94-4.63 2.04zm78.56 51.17c-2.4 1.24-4.61 2.93-4.9 3.75-0.44 1.23-0.01 1.35 2.4 0.66 1.62-0.47 4.48-1.59 6.37-2.5 1.88-0.92 3.57-2.22 3.75-2.91 0.18-0.69-0.48-1.25-1.46-1.25-0.99 0-3.75 1.01-6.16 2.25zm-786.06 39.75c0 1.1 3.08 5.25 6.88 9.25 3.78 3.99 8.05 7.93 9.49 8.75 1.43 0.82 2.95 1.17 3.37 0.78 0.42-0.4-0.09-1.98-1.13-3.5-1.05-1.53-4.31-6.04-7.25-10.03-4.58-6.2-5.79-7.25-8.36-7.25-2.33 0-3 0.44-3 2zm366 6.68c-5.22 0.81-9.72 1.92-10 2.46-0.27 0.53-1.17 0.89-2 0.8-0.82-0.1-2.29-0.12-3.25-0.06-0.96 0.07-1.75 0.8-1.75 1.62 0 0.96-0.63 1.32-1.75 0.99-0.96-0.28-3.18 0.51-4.92 1.75-1.75 1.24-4.33 3.83-5.73 5.76-1.41 1.93-3.09 5.52-3.74 8-0.72 2.74-0.95 7.44-0.58 12 0.33 4.13 1.75 10.65 3.15 14.5 1.41 3.85 3.69 8.69 5.07 10.75 1.37 2.06 3.96 4.65 5.75 5.75 2.62 1.61 4.99 1.99 12.25 1.98 4.95-0.01 12.04-0.68 15.75-1.5 3.8-0.83 8.61-2.75 11-4.38 2.34-1.6 5.68-4.41 7.43-6.25 1.74-1.84 3.99-5.37 5-7.85 1.4-3.45 1.82-7.18 1.82-16 0-9.89-0.32-12.2-2.3-16.5-1.27-2.75-3.74-6.5-5.5-8.34-1.76-1.83-4.32-3.91-5.7-4.63-1.37-0.71-4.3-1.53-6.5-1.82-2.2-0.29-8.27 0.15-13.5 0.97zm453.25 13.86c-1.79 0.8-3.59 2-4 2.66-0.56 0.9 0.38 1.04 3.75 0.56 2.48-0.35 5.74-1.11 7.25-1.7 1.51-0.58 2.75-1.51 2.75-2.06 0-0.55-1.46-0.98-3.25-0.96-1.79 0.02-4.71 0.7-6.5 1.5zm-522.44 8.35c-1.49 0.25-3.96 0.62-5.5 0.81-2.62 0.32-2.7 0.46-1.18 2.07 0.9 0.95 2.59 3.64 3.75 5.98 1.22 2.43 2.12 6.17 2.12 8.75 0 3.83-0.3 4.5-2 4.5-1.62 0-2-0.67-2-3.5 0-1.93-0.61-4.96-1.35-6.75-0.74-1.79-2.54-4.71-4-6.5l-2.65-3.25c-8.14 3.13-11.95 5.49-13.73 7.27-1.84 1.84-3.75 5.16-4.43 7.73-0.92 3.42-0.94 6.55-0.1 13 0.6 4.68 2.04 10.98 3.2 14 1.15 3.02 3.55 7.25 5.33 9.39 1.78 2.15 4.92 4.73 6.98 5.75 2.06 1.02 4.99 1.86 6.5 1.86 2.68 0.01 2.81-0.27 5.02-10.25 1.24-5.64 2.26-11.71 2.25-13.5-0.01-1.91-0.54-3.26-1.27-3.28-0.69-0.02-2.15 0.89-3.25 2.03-1.1 1.14-2.56 2.05-3.25 2.03-0.69-0.02-1.47-0.48-1.75-1.03-0.27-0.55 0.57-2.24 1.87-3.75 1.31-1.51 4.57-3.84 7.25-5.18 2.69-1.34 7.02-2.69 9.64-3 4.29-0.51 4.76-0.37 4.76 1.43 0 1.62-1 2.19-5.26 3l-5.26 1c0.45 10.52-0.2 16.05-1.43 21-1.09 4.4-1.89 8.15-1.77 8.33 0.11 0.19 1.44 0.07 2.95-0.25 1.51-0.32 4.44-2.1 6.5-3.96 2.06-1.86 4.83-5.57 6.16-8.25 1.32-2.68 2.78-7.91 3.25-11.62 0.49-3.91 0.45-8.75-0.08-11.5-0.51-2.61-1.89-7.23-3.08-10.25-1.19-3.02-3.02-6.96-4.08-8.75-1.05-1.79-3.16-3.83-4.67-4.54-1.51-0.7-3.96-1.08-5.44-0.82zm-143.48 194.83c0.45 0.43 4.5 0.64 9 0.46 4.49-0.17 8.36-0.51 8.59-0.75 0.23-0.23-3.82-0.44-9-0.46-5.18-0.01-9.05 0.32-8.59 0.75zm32.78 2.2c-1.32 0.37-2.56 1.44-2.75 2.37-0.23 1.08 2.37 4.37 7.07 8.96 4.23 4.13 8.3 9.19 9.47 11.75 1.23 2.68 2.07 6.63 2.08 9.75 0.01 3.39-0.73 6.75-2.11 9.5-1.17 2.34-4.77 6.84-8 10-3.29 3.22-5.87 6.63-5.87 7.75 0 1.62 0.67 2 3.5 2 1.93 0 5.86-1.04 8.75-2.3 2.89-1.27 6.83-3.47 8.75-4.89 2.07-1.52 4.42-4.66 5.75-7.69 1.24-2.82 2.25-7.03 2.26-9.37 0-2.34-0.68-6.84-1.5-10-0.83-3.16-2.59-7.89-3.91-10.5-1.31-2.61-4.35-6.95-6.75-9.63-2.39-2.69-5.47-5.44-6.85-6.11-1.37-0.68-3.62-1.46-5-1.75-1.37-0.28-3.58-0.21-4.89 0.16zm-85.74 7.31c-2.13 1.11-4.67 2.74-5.65 3.64-0.98 0.9-1.77 2.19-1.75 2.88 0.02 0.78 1.44 0.3 3.78-1.29 2.06-1.39 5.21-2.96 7-3.5 1.79-0.53 3.23-1.36 3.2-1.85-0.02-0.49-0.64-1.12-1.38-1.39-0.73-0.27-3.07 0.41-5.2 1.51zm83.88 11.79c-2.34 1.09-4.47 2.43-4.75 2.98-0.27 0.55 0.18 1.79 1 2.75 0.83 0.96 1.17 2.09 0.75 2.5-0.41 0.42-1.42 0.08-2.25-0.74-1.33-1.33-2.18-1.23-7.5 0.88-3.3 1.31-8.25 3.23-11 4.28-2.75 1.04-5.14 2.56-5.32 3.37-0.18 0.8 0.95 3 2.5 4.88 1.55 1.88 4.62 4.24 6.82 5.23 2.2 0.99 6.14 1.82 8.75 1.83 2.61 0.01 7.11-0.89 10-2 2.89-1.12 7.39-3.37 10-5 4.31-2.7 4.75-3.33 4.73-6.73-0.01-2.06-0.86-5.55-1.88-7.75-1.02-2.2-2.81-5.01-3.98-6.25-1.17-1.24-2.46-2.24-2.87-2.23-0.41 0.01-2.66 0.91-5 2zm-98.25 13.69c-0.82 0.3-2.52 1.5-3.78 2.67-1.25 1.16-2.26 2.68-2.25 3.37 0.02 0.69 1.04 1.94 2.28 2.78 1.66 1.13 3.26 1.33 6.11 0.75 3.76-0.76 3.85-0.87 3.26-4.28-0.33-1.92-0.6-4.06-0.61-4.75 0-0.69-0.8-1.21-1.76-1.17-0.96 0.04-2.42 0.32-3.25 0.63zm2.5 15.74c-1.32 1.35-2.44 3.04-2.49 3.75-0.04 0.72 0.73 2.07 1.71 3.01 0.98 0.94 3.32 2.06 5.21 2.5l3.42 0.79c-1.21-6.2-1.96-9.01-2.45-10.25-0.5-1.24-1.37-2.25-1.94-2.25-0.58 0-2.13 1.1-3.46 2.45zm10 16.22c-1.1 0.25-3.3 0.98-4.88 1.64-1.59 0.65-3.25 1.86-3.71 2.69-0.5 0.91-0.25 2.38 0.63 3.75 0.84 1.3 3.26 2.72 5.71 3.35 2.34 0.6 5.94 0.82 8 0.5 2.06-0.33 4.91-1.39 6.33-2.35 1.58-1.07 2.45-2.48 2.25-3.65-0.18-1.04-1.45-2.69-2.83-3.66-1.37-0.97-4.07-1.97-6-2.23-1.92-0.26-4.4-0.28-5.5-0.04zm1.5 17.04c-0.82 0.3-2.28 1.28-3.23 2.17-1.27 1.19-1.46 2.08-0.75 3.37 0.54 0.96 2.67 2.2 4.73 2.75 2.06 0.55 5.33 0.71 7.25 0.36 1.93-0.35 4.3-1.36 5.28-2.25 0.98-0.88 1.77-2.17 1.75-2.86-0.01-0.69-1.38-1.92-3.03-2.75-1.65-0.83-4.69-1.46-6.75-1.42-2.06 0.04-4.42 0.33-5.25 0.63zm552.59 14.27c-0.32 0.56 0.54 1.69 1.91 2.52 1.38 0.83 3.06 1.37 3.75 1.2 0.69-0.16-0.17-1.3-1.91-2.52-1.91-1.34-3.39-1.81-3.75-1.2zm-4.34 1.6c-0.91 0.31-0.78 0.95 0.5 2.4 1.32 1.48 2.18 1.73 3.5 1 1.44-0.8 1.53-1.26 0.5-2.52-0.69-0.85-1.7-1.49-2.25-1.43-0.55 0.07-1.56 0.32-2.25 0.55z"/>
		<path id="Path 3" class="s1" d="m459.92 345.62c-2.98 0.71-5.87 1.83-6.42 2.47-0.74 0.86-0.35 1.02 1.5 0.61 1.37-0.31 4.24-0.93 6.37-1.38 2.14-0.45 4.05-1.16 4.25-1.57 0.21-0.41 0.23-0.9 0.05-1.09-0.19-0.19-2.78 0.24-5.75 0.96zm-16.85 5.41c-1.34 0.5-2.35 1.37-2.25 1.94 0.1 0.57 0.97 0.75 1.93 0.4 0.96-0.34 2.76-0.79 4-1 1.24-0.2 2.25-0.82 2.25-1.37 0-0.55-0.79-0.97-1.75-0.94-0.96 0.04-2.84 0.47-4.18 0.97zm-9.46 9.66c-0.79 1.48-1.75 5.87-2.13 9.75-0.42 4.23-0.25 9.26 0.43 12.56 0.62 3.02 2.27 7.98 3.67 11 1.4 3.02 4.2 7.19 6.23 9.27 2.03 2.07 4.25 3.75 4.94 3.75 0.69-0.01-1.03-2.61-3.82-5.77-2.87-3.25-5.98-8.14-7.15-11.25-1.24-3.3-2.26-8.9-2.54-14-0.37-6.79-0.1-9.3 1.34-12.5 1-2.2 1.89-4.34 1.98-4.75 0.1-0.41-0.21-0.75-0.67-0.75-0.47 0-1.5 1.21-2.28 2.69zm42.72 6.53c-3.21 0.43-9.21 1.89-13.33 3.26-4.13 1.37-9.64 3.85-12.25 5.5-2.61 1.66-4.75 3.7-4.75 4.52 0 0.82 0.56 1.5 1.25 1.51 0.69 0 4.17-1.54 7.75-3.43 3.57-1.89 9.87-4.37 14-5.51 4.12-1.14 9.41-2.07 11.75-2.07 2.89 0 4.41-0.48 4.75-1.5 0.29-0.87-0.31-1.83-1.42-2.28-1.05-0.43-4.54-0.43-7.75 0zm-86.33 1.78c0 0.55 1.84 1.11 4.09 1.25 2.25 0.14 4.28-0.09 4.5-0.5 0.23-0.41-0.27-0.98-1.09-1.25-0.83-0.27-2.85-0.5-4.5-0.5-1.65 0-3 0.45-3 1zm-23.97 9c-0.57 1.1-1.49 4.36-2.05 7.25-0.7 3.62-0.69 7.58 0.04 12.75 0.61 4.27 2.34 10.19 4.02 13.75 1.74 3.67 4.3 7.23 6.21 8.63 1.79 1.32 4.26 2.67 5.5 3 1.24 0.34 2.26 0.28 2.27-0.13 0.01-0.41-1.56-1.54-3.5-2.5-1.94-0.96-4.62-3.21-5.97-5-1.35-1.79-3.42-5.95-4.6-9.25-1.47-4.12-2.19-8.66-2.3-14.5-0.13-7.21 0.19-9.07 2.1-12.25 1.77-2.95 1.94-3.75 0.78-3.75-0.81 0-1.94 0.9-2.5 2zm-109.03 221c0 0.55 1.35 1.67 3 2.5 1.65 0.83 4.57 1.5 6.5 1.5 1.92 0 4.64-0.56 6.03-1.25 1.39-0.69 2.51-1.59 2.5-2-0.02-0.41-0.48-0.98-1.03-1.25-0.55-0.27-2.8 0.17-5 1-3.56 1.34-4.35 1.33-7.25-0.02-1.79-0.84-3.59-1.51-4-1.5-0.41 0.01-0.75 0.47-0.75 1.02z"/>
	</g>
</svg>